<?xml version="1.0" ?><!DOCTYPE svg  PUBLIC '-//W3C//DTD SVG 1.1//EN'  'http://www.w3.org/Graphics/SVG/1.1/DTD/svg11.dtd'><svg height="512px" style="enable-background:new 0 0 512 512;" version="1.1" viewBox="0 0 512 512" fill = "#f5eee3" width="512px" xml:space="preserve" xmlns="http://www.w3.org/2000/svg" xmlns:xlink="http://www.w3.org/1999/xlink"><g id="D_-_1_x2C__Backpack_x2C__bag_x2C__travel_x2C__office"><g><path d="M55.754,245.653c12.853,11.377,30.357,19.24,49.59,22.349v-38.433c0-2.433,1.972-4.405,4.405-4.405h4.405v-88.104H34.862    v66.224C34.862,218.681,42.281,233.729,55.754,245.653z"/><polygon points="114.154,268.574 167.016,269.456 167.016,233.975 162.611,233.975 118.56,233.975 114.154,233.975   "/><path d="M105.344,317.673v-40.764c-21.413-3.21-41.026-11.909-55.43-24.659c-6.169-5.46-11.206-11.535-15.052-18v184.74h79.292    v-96.913h-4.405C107.316,322.077,105.344,320.105,105.344,317.673z"/><polygon points="167.016,278.267 114.154,277.385 114.154,313.268 118.56,313.268 162.611,313.268 167.016,313.268   "/><rect height="96.913" width="35.241" x="122.965" y="322.077"/><rect height="88.104" width="35.241" x="122.965" y="137.061"/><rect height="88.104" width="35.24" x="352.033" y="137.061"/><polygon points="343.223,269.459 396.084,268.925 396.084,233.975 391.68,233.975 347.627,233.975 343.223,233.975   "/><rect height="35.242" width="158.585" x="175.827" y="93.009"/><path d="M175.827,229.569v39.939h158.585v-39.939c0-2.433,1.972-4.405,4.405-4.405h4.405v-88.104h-4.405H171.422h-4.406v88.104    h4.406C173.854,225.165,175.827,227.137,175.827,229.569z"/><polygon points="396.084,277.746 343.223,278.27 343.223,313.268 347.627,313.268 391.68,313.268 396.084,313.268   "/><path d="M463.912,250.587c-13.725,12.88-32.846,22.035-53.839,25.78c-1.708,0.305-3.44,0.565-5.179,0.801v40.505    c0,2.433-1.973,4.404-4.404,4.404h-4.406v96.913h81.055V234.272C473.68,240.089,469.246,245.582,463.912,250.587z"/><path d="M396.084,137.061v88.104h4.406c2.432,0,4.404,1.972,4.404,4.405v38.702c1.217-0.176,2.432-0.363,3.632-0.577    c39.757-7.092,68.612-34.18,68.612-64.41v-66.224H396.084z"/><rect height="96.913" width="35.24" x="352.033" y="322.077"/><path d="M334.412,317.673v-39.354H175.827v39.354c0,2.433-1.972,4.404-4.405,4.404h-4.406v96.913h176.207v-96.913h-4.405    C336.384,322.077,334.412,320.105,334.412,317.673z M224.283,361.724h-17.62v-17.62h17.62V361.724z M250.714,361.724h-17.621    v-17.62h17.621V361.724z M277.146,361.724h-17.621v-17.62h17.621V361.724z M303.576,361.724h-17.621v-17.62h17.621V361.724z"/></g></g><g id="Layer_1"/></svg>