<?xml version="1.0" ?><!DOCTYPE svg  PUBLIC '-//W3C//DTD SVG 1.1//EN'  'http://www.w3.org/Graphics/SVG/1.1/DTD/svg11.dtd'><svg height="512px" style="enable-background:new 0 0 512 512;" version="1.1" viewBox="0 0 512 512" fill = "#f5eee3" width="512px" xml:space="preserve" xmlns="http://www.w3.org/2000/svg" xmlns:xlink="http://www.w3.org/1999/xlink"><g id="A_-_35_x2C__experiment_x2C__gear_x2C__setting_x2C__lab"><g><path d="M274.301,236.505c-3.033,0.545-6.113,1.15-9.227,1.813c1.239,1.203,2.479,2.417,3.719,3.658    c1.25,1.254,2.477,2.509,3.69,3.764C273.162,242.56,273.766,239.481,274.301,236.505z"/><path d="M276.079,259.185c-0.426,1.696-0.863,3.398-1.323,5.112c-0.451,1.69-0.92,3.387-1.404,5.085    c3.101-1.004,6.085-2.025,8.954-3.059C280.344,263.998,278.27,261.617,276.079,259.185z"/><path d="M251.625,234.708c-2.438-2.198-4.832-4.286-7.176-6.265c-1.04,2.881-2.071,5.888-3.089,9.022    c1.695-0.48,3.397-0.955,5.117-1.414C248.193,235.588,249.911,235.141,251.625,234.708z"/><path d="M226.948,265.183c-3.815-4.133-7.447-8.282-10.841-12.383c-7.995,3.124-15.24,6.427-21.404,9.793    c-15.265,8.336-18.348,14.093-17.845,15.973c0.493,1.845,5.417,4.966,20.741,4.966c7.572,0,16.5-0.788,26.154-2.254    C224.643,276.036,225.712,270.649,226.948,265.183z"/><path d="M201.788,223.32c-0.615-0.153-1.438-0.081-2.132,0.236c-0.763,0.391-1.366,1.09-1.596,1.946    c-0.432,1.609,0.55,3.33,2.144,3.758c0.259,0.069,0.535,0.105,0.809,0.105c0.485,0,0.94-0.116,1.348-0.315    c0.096-0.076,0.185-0.158,0.29-0.223c0.668-0.417,1.097-0.993,1.312-1.756c0.208-0.794,0.096-1.611-0.315-2.322    C203.233,224.035,202.574,223.527,201.788,223.32z"/><path d="M233.781,239.711c1.695-5.448,3.48-10.688,5.329-15.662c-17.974-14.378-32.394-21.808-39.33-21.808    c-0.871,0-2.035,0.128-2.641,0.739c-1.281,1.279-1.274,5.625,2.533,13.777c0.442-0.063,0.89-0.103,1.346-0.103    c0.15,0,0.298,0.023,0.448,0.03c0.082,0.003,0.163,0.01,0.245,0.016c0.25,0.018,0.499,0.037,0.747,0.076    c0.325,0.048,0.647,0.11,0.966,0.19c0.01,0.003,0.019,0.006,0.029,0.009c0.008,0.001,0.017,0.002,0.024,0.004    c2.472,0.654,4.553,2.247,5.846,4.481c0.81,1.398,1.248,2.937,1.3,4.499c0.031,0.938-0.076,1.884-0.326,2.814    c-0.325,1.237-0.891,2.361-1.632,3.338c2.812,4.138,6.023,8.462,9.542,12.873C223.183,243.147,228.392,241.38,233.781,239.711z"/><path d="M270.992,181.241c0.049,0.075,0.102,0.15,0.156,0.22c0.035,0.045,0.068,0.092,0.105,0.135    c0.384,0.431,0.895,0.758,1.503,0.919c0.628,0.168,1.243,0.136,1.792-0.053c0.014-0.005,0.027-0.009,0.041-0.015    c0.152-0.054,0.297-0.125,0.436-0.203c0.082-0.047,0.161-0.101,0.239-0.156c0.06-0.041,0.12-0.083,0.177-0.128    c0.074-0.061,0.148-0.125,0.217-0.194c0.385-0.376,0.682-0.854,0.828-1.414c0.428-1.612-0.533-3.263-2.144-3.693    c-0.334-0.096-0.609-0.136-0.882-0.136c-1.34,0-2.522,0.918-2.872,2.232c-0.149,0.567-0.126,1.13,0.021,1.648    C270.689,180.678,270.816,180.965,270.992,181.241z"/><path d="M225.322,302.445c-0.182-0.09-0.375-0.163-0.581-0.219c-0.266-0.071-0.545-0.107-0.822-0.107    c-1.382,0-2.591,0.909-2.941,2.211c-0.435,1.657,0.518,3.313,2.175,3.751c1.268,0.34,2.495-0.135,3.206-1.048    c0.002-0.002,0.002-0.004,0.003-0.006c0.115-0.146,0.215-0.307,0.301-0.478c0.003-0.005,0.006-0.011,0.01-0.017    c0.085-0.172,0.154-0.354,0.206-0.545C227.26,304.527,226.591,303.078,225.322,302.445z"/><path d="M291.574,232.01c0.092,0.156,0.198,0.297,0.313,0.432c0.096,0.113,0.203,0.219,0.316,0.317    c0.005,0.003,0.01,0.009,0.014,0.014c0.234,0.201,0.501,0.37,0.791,0.5c0.027,0.011,0.055,0.02,0.082,0.03    c0.115,0.049,0.234,0.093,0.357,0.129c0.187,0.049,0.371,0.076,0.556,0.089c0.026,0.002,0.054,0.004,0.08,0.005    c0.157,0.006,0.311-0.006,0.462-0.023c0.043-0.005,0.086-0.005,0.129-0.011c0.178-0.029,0.35-0.074,0.516-0.133    c0.087-0.031,0.17-0.075,0.253-0.113c0.077-0.036,0.154-0.068,0.229-0.109c0.091-0.052,0.176-0.112,0.262-0.172    c0.061-0.043,0.121-0.085,0.179-0.132c0.08-0.065,0.154-0.135,0.228-0.207c0.059-0.058,0.114-0.118,0.167-0.179    c0.063-0.071,0.123-0.144,0.178-0.221c0.059-0.084,0.112-0.174,0.164-0.264c0.037-0.065,0.078-0.128,0.109-0.196    c0.08-0.166,0.148-0.337,0.197-0.519c0.434-1.608-0.55-3.33-2.145-3.759c-0.244-0.065-0.508-0.099-0.771-0.099    c-1.396,0-2.625,0.94-2.987,2.287c-0.208,0.78-0.095,1.606,0.32,2.323C291.573,232.003,291.573,232.006,291.574,232.01z"/><path d="M275.443,229.647c2.902-19.055,2.75-33.153,0.779-40.827c-0.082,0.023-0.166,0.033-0.247,0.055    c-0.129,0.034-0.26,0.058-0.39,0.086c-0.37,0.082-0.74,0.142-1.117,0.178c-0.076,0.007-0.153,0.013-0.23,0.018    c-1.064,0.075-2.141-0.01-3.176-0.304c-0.014-0.003-0.027-0.009-0.039-0.013c-0.348-0.094-0.683-0.209-1.01-0.337    c-0.186-0.072-0.365-0.156-0.546-0.239c-0.147-0.07-0.292-0.142-0.435-0.218c-0.203-0.107-0.403-0.214-0.597-0.336    c-0.038-0.023-0.071-0.05-0.108-0.074c-0.438-0.283-0.847-0.604-1.232-0.955c-0.068-0.062-0.138-0.123-0.205-0.187    c-0.095-0.091-0.2-0.171-0.291-0.267c-5.534,5.679-12.702,17.804-19.71,35.712c4.077,3.383,8.239,7.036,12.439,10.927    C264.798,231.624,270.195,230.545,275.443,229.647z"/><path d="M236.086,274.694c-1.245-1.244-2.471-2.496-3.688-3.752c-0.657,3.106-1.249,6.174-1.788,9.2    c3.019-0.539,6.088-1.136,9.197-1.793C238.567,277.146,237.325,275.932,236.086,274.694z"/><path d="M247.486,276.621c3.071-0.729,6.161-1.507,9.259-2.341c3.124-0.835,6.15-1.694,9.098-2.571    c0.876-2.942,1.737-5.973,2.576-9.109c0.842-3.141,1.613-6.202,2.328-9.192c-2.109-2.231-4.305-4.497-6.598-6.796    c-2.277-2.277-4.526-4.459-6.752-6.566c-3.063,0.732-6.143,1.511-9.221,2.342c-3.097,0.827-6.147,1.694-9.152,2.589    c-0.875,2.938-1.736,5.965-2.577,9.094c-0.827,3.081-1.591,6.147-2.317,9.198c2.148,2.275,4.346,4.541,6.591,6.786    C242.998,272.327,245.254,274.514,247.486,276.621z"/><path d="M228.794,257.47c0.427-1.698,0.861-3.397,1.319-5.101c0.458-1.703,0.929-3.386,1.406-5.058    c-3.04,0.987-6.017,2.003-8.911,3.046C224.595,252.718,226.66,255.093,228.794,257.47z"/><path d="M389.322,254.883c-0.132-0.348-0.207-0.724-0.213-1.118l-0.014-0.708c-0.008-0.376,0.047-0.739,0.156-1.079    c-0.129-0.332-0.205-0.69-0.219-1.065l-0.029-0.717c-0.016-0.375,0.033-0.738,0.135-1.078c-0.137-0.329-0.221-0.685-0.243-1.06    l-0.044-0.719c-0.024-0.375,0.016-0.74,0.109-1.083c-0.143-0.328-0.235-0.685-0.266-1.063l-0.058-0.707    c-0.033-0.375-0.001-0.742,0.087-1.088c-0.151-0.324-0.251-0.678-0.289-1.053l-0.074-0.711c-0.041-0.375-0.016-0.74,0.064-1.088    c-0.157-0.32-0.264-0.669-0.311-1.042l-0.091-0.716c-0.048-0.373-0.031-0.739,0.042-1.087c-0.164-0.314-0.278-0.66-0.333-1.031    l-0.106-0.714c-0.057-0.373-0.047-0.741,0.018-1.092c-0.17-0.312-0.292-0.656-0.354-1.025l-0.121-0.71    c-0.064-0.371-0.064-0.737-0.007-1.089c-0.177-0.31-0.308-0.652-0.378-1.022l-0.135-0.701c-0.072-0.37-0.081-0.738-0.029-1.092    c-0.186-0.306-0.322-0.647-0.401-1.017l-0.149-0.697c-0.081-0.367-0.097-0.734-0.054-1.088c-0.191-0.3-0.336-0.638-0.422-1.003    l-0.167-0.7c-0.088-0.366-0.111-0.732-0.076-1.087c-0.197-0.297-0.35-0.631-0.443-0.995l-0.182-0.694    c-0.096-0.363-0.127-0.729-0.1-1.083c-0.203-0.293-0.363-0.623-0.465-0.986l-0.195-0.685c-0.104-0.363-0.144-0.729-0.125-1.086    c-0.21-0.288-0.375-0.616-0.486-0.976l-0.209-0.683c-0.113-0.36-0.16-0.725-0.148-1.082c-0.217-0.284-0.39-0.608-0.506-0.966    l-0.226-0.678c-0.121-0.357-0.176-0.72-0.173-1.077c-0.221-0.278-0.402-0.599-0.527-0.955l-0.24-0.673    c-0.127-0.354-0.189-0.716-0.194-1.073c-0.228-0.273-0.415-0.589-0.548-0.942l-0.254-0.667c-0.136-0.352-0.207-0.714-0.218-1.071    c-0.234-0.269-0.429-0.58-0.568-0.928l-0.271-0.666c-0.142-0.347-0.219-0.703-0.239-1.057c-0.239-0.264-0.439-0.57-0.587-0.916    l-0.283-0.655c-0.148-0.344-0.234-0.7-0.262-1.054c-0.244-0.258-0.449-0.56-0.605-0.901l-0.295-0.644    c-0.156-0.341-0.251-0.696-0.287-1.051c-0.25-0.252-0.463-0.552-0.625-0.891l-0.311-0.641c-0.164-0.337-0.265-0.688-0.307-1.042    c-0.256-0.246-0.475-0.539-0.645-0.874l-0.326-0.639c-0.171-0.333-0.279-0.681-0.329-1.031c-0.262-0.243-0.487-0.531-0.664-0.863    l-0.339-0.628c-0.178-0.331-0.294-0.677-0.352-1.028c-0.266-0.236-0.498-0.519-0.681-0.846l-0.352-0.62    c-0.186-0.327-0.31-0.673-0.375-1.023c-0.271-0.23-0.51-0.509-0.701-0.833l-0.362-0.609c-0.193-0.323-0.326-0.667-0.398-1.016    c-0.275-0.224-0.521-0.498-0.718-0.817l-0.379-0.606c-0.2-0.318-0.338-0.658-0.417-1.005c-0.28-0.219-0.53-0.486-0.734-0.8    l-0.392-0.599c-0.207-0.313-0.354-0.65-0.441-0.996c-0.284-0.212-0.54-0.474-0.75-0.784l-0.405-0.589    c-0.213-0.31-0.367-0.644-0.463-0.988c-0.289-0.206-0.551-0.463-0.77-0.77l-0.417-0.582c-0.22-0.305-0.38-0.634-0.481-0.976    c-0.293-0.2-0.559-0.449-0.783-0.75l-0.434-0.577c-0.225-0.3-0.391-0.626-0.501-0.964c-0.298-0.193-0.569-0.438-0.8-0.733    l-0.445-0.567c-0.232-0.295-0.406-0.618-0.521-0.954c-0.303-0.187-0.578-0.426-0.816-0.717l-0.456-0.557    c-0.239-0.29-0.42-0.609-0.542-0.943c-0.307-0.18-0.59-0.414-0.834-0.699l-0.467-0.546c-0.244-0.286-0.432-0.601-0.563-0.932    c-0.313-0.175-0.603-0.405-0.854-0.689l-0.471-0.527c-0.252-0.28-0.447-0.592-0.586-0.922c-0.313-0.167-0.604-0.387-0.857-0.661    l-0.494-0.53c-0.257-0.274-0.458-0.581-0.603-0.906c-0.316-0.16-0.611-0.375-0.873-0.644l-0.501-0.515    c-0.264-0.27-0.473-0.573-0.625-0.896c-0.322-0.154-0.622-0.363-0.891-0.628l-0.51-0.502c-0.269-0.264-0.483-0.562-0.642-0.882    c-0.326-0.146-0.632-0.35-0.904-0.608l-0.521-0.492c-0.274-0.258-0.495-0.552-0.661-0.868c-0.328-0.14-0.639-0.336-0.917-0.59    l-0.53-0.479c-0.28-0.251-0.508-0.542-0.68-0.854c-0.33-0.133-0.645-0.321-0.928-0.567l-0.545-0.472    c-0.285-0.246-0.518-0.53-0.697-0.838c-0.334-0.125-0.652-0.31-0.941-0.551l-0.549-0.454c-0.292-0.241-0.531-0.52-0.717-0.825    c-0.34-0.119-0.663-0.297-0.96-0.534l-0.554-0.44c-0.297-0.234-0.543-0.51-0.735-0.811c-0.34-0.112-0.667-0.282-0.966-0.511    l-0.568-0.431c-0.301-0.227-0.553-0.496-0.751-0.793c-0.343-0.104-0.672-0.267-0.978-0.489l-0.576-0.419    c-0.308-0.22-0.564-0.485-0.77-0.778c-0.343-0.097-0.675-0.251-0.984-0.467l-0.593-0.411c-0.31-0.213-0.571-0.471-0.781-0.758    c-0.349-0.09-0.688-0.24-1.003-0.451l-0.59-0.391c-0.316-0.208-0.584-0.46-0.801-0.745c-0.347-0.082-0.686-0.221-1.002-0.422    l-0.613-0.387c-0.317-0.2-0.589-0.446-0.813-0.724c-0.351-0.075-0.693-0.208-1.018-0.404l-0.613-0.37    c-0.324-0.194-0.602-0.435-0.83-0.707c-0.352-0.068-0.697-0.194-1.025-0.383l-0.621-0.356c-0.327-0.187-0.611-0.422-0.846-0.69    c-0.353-0.06-0.702-0.178-1.033-0.36l-0.629-0.343c-0.332-0.18-0.619-0.408-0.861-0.673c-0.354-0.051-0.703-0.162-1.037-0.336    l-0.639-0.33c-0.338-0.172-0.631-0.395-0.877-0.653c-0.354-0.044-0.707-0.147-1.045-0.314l-0.643-0.315    c-0.341-0.166-0.641-0.382-0.894-0.636c-0.354-0.037-0.712-0.132-1.054-0.292l-0.65-0.301c-0.344-0.158-0.646-0.368-0.904-0.615    c-0.355-0.028-0.713-0.116-1.058-0.268l-0.663-0.29c-0.345-0.15-0.65-0.352-0.914-0.594c-0.357-0.021-0.719-0.102-1.067-0.247    l-0.661-0.273c-0.351-0.143-0.662-0.339-0.932-0.576c-0.356-0.013-0.719-0.085-1.07-0.223l-0.67-0.259    c-0.353-0.135-0.668-0.325-0.943-0.556c-0.357-0.004-0.721-0.069-1.077-0.199l-0.672-0.244c-0.356-0.128-0.677-0.31-0.956-0.535    c-0.355,0-0.725-0.054-1.083-0.177l-0.677-0.229c-0.359-0.12-0.686-0.296-0.969-0.515c-0.357,0.013-0.723-0.039-1.082-0.153    l-0.686-0.214c-0.359-0.112-0.687-0.279-0.975-0.492c-0.354,0.019-0.721-0.023-1.082-0.128l-0.686-0.199    c-0.363-0.104-0.693-0.265-0.986-0.47c-0.355,0.025-0.721-0.007-1.086-0.106l-0.689-0.183c-0.364-0.096-0.697-0.25-0.994-0.448    c-0.356,0.034-0.725,0.008-1.09-0.083l-0.692-0.168c-0.366-0.088-0.703-0.234-1.003-0.427c-0.354,0.042-0.721,0.024-1.088-0.058    l-0.702-0.155c-0.368-0.08-0.706-0.219-1.011-0.404c-0.354,0.048-0.721,0.04-1.089-0.035l-0.7-0.138    c-0.371-0.072-0.715-0.204-1.023-0.383c-0.352,0.056-0.72,0.056-1.09-0.011l-0.706-0.124c-0.37-0.064-0.716-0.188-1.028-0.36    c-0.351,0.062-0.717,0.07-1.088,0.013l-0.713-0.11c-0.371-0.056-0.718-0.172-1.033-0.338c-0.348,0.072-0.711,0.087-1.083,0.037    l-0.716-0.093c-0.374-0.047-0.726-0.157-1.045-0.316c-0.347,0.079-0.712,0.102-1.084,0.06l-0.717-0.078    c-0.373-0.04-0.727-0.142-1.049-0.293c-0.346,0.086-0.712,0.116-1.086,0.083l-0.713-0.062c-0.375-0.032-0.731-0.126-1.059-0.272    c-0.344,0.093-0.708,0.132-1.085,0.106l-0.714-0.047c-0.375-0.024-0.732-0.111-1.062-0.248c-0.341,0.101-0.704,0.147-1.08,0.129    l-0.722-0.033c-0.375-0.016-0.733-0.094-1.063-0.225c-0.341,0.108-0.706,0.156-1.079,0.152l-0.716-0.018    c-0.377-0.007-0.738-0.079-1.073-0.203c-0.338,0.115-0.721,0.19-1.077,0.175l-0.716-0.002l-0.34,0.001    c-0.364-0.016-0.742-0.061-1.081-0.178c-0.334,0.124-0.695,0.193-1.071,0.2l-0.713,0.016c-0.385,0.005-0.74-0.045-1.08-0.155    c-0.332,0.129-0.689,0.207-1.064,0.222l-0.715,0.03c-0.382,0.014-0.741-0.03-1.083-0.132c-0.329,0.137-0.686,0.222-1.061,0.245    l-0.719,0.047c-0.377,0.023-0.741-0.016-1.084-0.11c-0.326,0.144-0.681,0.236-1.055,0.267l-0.712,0.061    c-0.378,0.034-0.743,0.002-1.089-0.085c-0.324,0.151-0.677,0.251-1.052,0.29l-0.711,0.076c-0.374,0.04-0.74,0.018-1.088-0.062    c-0.318,0.157-0.669,0.265-1.042,0.312l-0.715,0.092c-0.373,0.049-0.74,0.031-1.087-0.039c-0.315,0.165-0.664,0.28-1.037,0.335    l-0.707,0.106c-0.373,0.058-0.741,0.049-1.093-0.016c-0.312,0.171-0.659,0.295-1.03,0.358l-0.705,0.121    c-0.371,0.065-0.737,0.065-1.089,0.008c-0.308,0.178-0.65,0.309-1.019,0.379l-0.708,0.138c-0.368,0.072-0.732,0.081-1.086,0.031    c-0.305,0.185-0.646,0.323-1.014,0.402l-0.698,0.151c-0.368,0.082-0.736,0.096-1.089,0.056c-0.302,0.191-0.64,0.337-1.006,0.424    l-0.695,0.167c-0.367,0.089-0.733,0.113-1.088,0.079c-0.296,0.197-0.63,0.35-0.993,0.444l-0.695,0.183    c-0.363,0.097-0.729,0.128-1.083,0.102c-0.292,0.204-0.623,0.364-0.984,0.467l-0.692,0.198c-0.362,0.104-0.729,0.144-1.082,0.125    c-0.287,0.21-0.614,0.376-0.973,0.487l-0.682,0.211c-0.36,0.112-0.721,0.162-1.083,0.15c-0.283,0.217-0.606,0.391-0.964,0.509    l-0.675,0.226c-0.358,0.121-0.726,0.166-1.08,0.173c-0.278,0.222-0.598,0.404-0.952,0.53l-0.676,0.242    c-0.353,0.127-0.715,0.19-1.071,0.195c-0.272,0.229-0.588,0.417-0.941,0.55l-0.669,0.256c-0.351,0.136-0.71,0.207-1.066,0.219    c-0.269,0.235-0.582,0.431-0.932,0.572l-0.66,0.269c-0.347,0.142-0.704,0.22-1.058,0.241c-0.263,0.239-0.569,0.439-0.915,0.588    l-0.653,0.283c-0.344,0.15-0.7,0.237-1.054,0.264c-0.256,0.245-0.557,0.451-0.897,0.606l-0.652,0.299    c-0.339,0.157-0.693,0.251-1.045,0.287c-0.252,0.25-0.551,0.464-0.891,0.627l-0.637,0.31c-0.339,0.166-0.691,0.267-1.044,0.31    c-0.248,0.257-0.542,0.477-0.877,0.647l-0.63,0.323c-0.334,0.172-0.683,0.282-1.034,0.332c-0.243,0.263-0.532,0.489-0.864,0.667    l-0.626,0.338c-0.33,0.179-0.677,0.295-1.027,0.354c-0.235,0.266-0.518,0.498-0.845,0.683l-0.623,0.354    c-0.326,0.185-0.67,0.309-1.019,0.375c-0.23,0.271-0.507,0.509-0.829,0.701l-0.617,0.368c-0.321,0.192-0.662,0.324-1.01,0.397    c-0.224,0.276-0.498,0.521-0.818,0.72l-0.603,0.378c-0.319,0.2-0.658,0.339-1.005,0.42c-0.219,0.282-0.487,0.532-0.803,0.738    l-0.594,0.39c-0.314,0.207-0.651,0.354-0.996,0.442c-0.211,0.285-0.473,0.54-0.783,0.751l-0.593,0.408    c-0.31,0.213-0.642,0.366-0.984,0.461c-0.205,0.29-0.461,0.551-0.766,0.769l-0.58,0.418c-0.306,0.221-0.636,0.381-0.977,0.485    c-0.2,0.294-0.451,0.562-0.753,0.788l-0.568,0.428c-0.3,0.228-0.627,0.396-0.967,0.506c-0.193,0.299-0.439,0.572-0.736,0.804    l-0.563,0.443c-0.294,0.232-0.617,0.407-0.953,0.524c-0.187,0.303-0.427,0.581-0.719,0.819l-0.55,0.452    c-0.29,0.24-0.61,0.422-0.944,0.546c-0.181,0.309-0.417,0.594-0.705,0.838l-0.538,0.46c-0.285,0.247-0.601,0.436-0.932,0.567    c-0.173,0.31-0.399,0.596-0.678,0.846l-0.539,0.483c-0.28,0.25-0.59,0.445-0.918,0.583c-0.167,0.316-0.39,0.609-0.666,0.866    l-0.52,0.486c-0.274,0.258-0.582,0.46-0.908,0.605c-0.161,0.319-0.377,0.618-0.649,0.88l-0.509,0.497    c-0.269,0.264-0.572,0.472-0.894,0.625c-0.154,0.321-0.362,0.623-0.627,0.892l-0.501,0.51c-0.263,0.27-0.562,0.484-0.88,0.644    c-0.146,0.324-0.348,0.629-0.604,0.902l-0.494,0.524c-0.257,0.275-0.551,0.496-0.866,0.662c-0.139,0.328-0.335,0.638-0.586,0.916    l-0.482,0.535c-0.251,0.281-0.54,0.507-0.852,0.68c-0.133,0.333-0.324,0.649-0.573,0.935l-0.462,0.536    c-0.247,0.287-0.531,0.521-0.84,0.701c-0.125,0.333-0.307,0.652-0.546,0.941l-0.457,0.553c-0.24,0.292-0.519,0.532-0.824,0.717    c-0.118,0.335-0.292,0.656-0.525,0.95l-0.45,0.569c-0.233,0.295-0.506,0.54-0.806,0.732c-0.111,0.337-0.278,0.663-0.504,0.961    l-0.438,0.578c-0.226,0.3-0.494,0.551-0.79,0.749c-0.103,0.34-0.264,0.669-0.483,0.972l-0.423,0.583    c-0.221,0.307-0.484,0.564-0.776,0.77c-0.096,0.344-0.251,0.677-0.466,0.986l-0.407,0.59c-0.214,0.311-0.472,0.574-0.76,0.785    c-0.089,0.347-0.237,0.685-0.446,1l-0.396,0.598c-0.206,0.314-0.458,0.581-0.739,0.798c-0.082,0.349-0.223,0.69-0.426,1.009    l-0.38,0.603c-0.2,0.32-0.446,0.594-0.725,0.818c-0.074,0.351-0.208,0.696-0.405,1.02l-0.366,0.609    c-0.193,0.325-0.433,0.604-0.707,0.834c-0.067,0.353-0.193,0.702-0.383,1.03l-0.352,0.615c-0.186,0.328-0.421,0.613-0.689,0.849    c-0.059,0.355-0.178,0.706-0.361,1.039l-0.339,0.625c-0.178,0.333-0.407,0.621-0.67,0.862c-0.051,0.354-0.162,0.706-0.336,1.041    l-0.328,0.637c-0.172,0.336-0.395,0.629-0.652,0.877c-0.043,0.354-0.146,0.707-0.312,1.046l-0.317,0.649    c-0.164,0.338-0.379,0.636-0.631,0.888c-0.036,0.358-0.132,0.716-0.292,1.061l-0.298,0.645c-0.157,0.344-0.367,0.647-0.614,0.906    c-0.029,0.355-0.116,0.712-0.267,1.057l-0.288,0.663c-0.15,0.346-0.352,0.652-0.593,0.915c-0.02,0.358-0.1,0.718-0.244,1.068    l-0.271,0.664c-0.142,0.351-0.338,0.663-0.574,0.931c-0.013,0.36-0.085,0.724-0.223,1.078l-0.255,0.664    c-0.135,0.353-0.324,0.67-0.555,0.943c-0.004,0.359-0.067,0.722-0.196,1.077l-0.244,0.675c-0.127,0.356-0.309,0.676-0.534,0.956    c0.004,0.358-0.052,0.723-0.174,1.082l-0.228,0.68c-0.12,0.359-0.296,0.684-0.514,0.968c0.01,0.358-0.038,0.724-0.151,1.084    l-0.213,0.686c-0.111,0.36-0.278,0.687-0.489,0.974c0.019,0.357-0.022,0.723-0.127,1.085l-0.197,0.685    c-0.104,0.362-0.264,0.694-0.469,0.985c0.026,0.356-0.006,0.722-0.104,1.086l-0.183,0.691c-0.095,0.364-0.248,0.698-0.446,0.995    c0.034,0.356,0.009,0.723-0.081,1.09l-0.167,0.693c-0.087,0.366-0.232,0.703-0.425,1.003c0.042,0.354,0.026,0.721-0.055,1.088    l-0.154,0.703c-0.08,0.367-0.218,0.708-0.403,1.011c0.049,0.353,0.041,0.718-0.033,1.087l-0.137,0.702    c-0.072,0.371-0.203,0.715-0.381,1.024c0.057,0.353,0.056,0.72-0.01,1.092l-0.122,0.704c-0.063,0.371-0.187,0.716-0.358,1.028    c0.064,0.351,0.071,0.718,0.015,1.089l-0.108,0.712c-0.056,0.371-0.171,0.719-0.335,1.035c0.07,0.347,0.087,0.712,0.038,1.083    l-0.092,0.716c-0.047,0.375-0.156,0.726-0.314,1.045c0.079,0.347,0.103,0.712,0.062,1.085l-0.077,0.717    c-0.039,0.374-0.14,0.728-0.292,1.049c0.087,0.345,0.118,0.711,0.085,1.085l-0.061,0.712c-0.031,0.376-0.125,0.733-0.269,1.06    c0.094,0.344,0.133,0.71,0.108,1.086l-0.046,0.713c-0.023,0.376-0.109,0.733-0.246,1.063c0.102,0.34,0.148,0.705,0.131,1.08    l-0.031,0.72c-0.016,0.376-0.094,0.734-0.225,1.065c0.109,0.34,0.164,0.703,0.155,1.079l-0.016,0.715    c-0.007,0.377-0.078,0.738-0.201,1.073c0.115,0.337,0.177,0.699,0.177,1.075l-0.001,0.725c0,0.374-0.063,0.734-0.179,1.069    c0.123,0.333,0.192,0.693,0.2,1.069l0.015,0.719c0.009,0.376-0.046,0.737-0.155,1.075c0.129,0.331,0.206,0.688,0.221,1.063    l0.03,0.718c0.016,0.375-0.031,0.738-0.133,1.08c0.137,0.329,0.222,0.687,0.244,1.063l0.046,0.714    c0.025,0.375-0.016,0.741-0.11,1.085c0.144,0.325,0.236,0.679,0.268,1.055l0.06,0.717c0.032,0.376,0,0.741-0.087,1.087    c0.151,0.322,0.25,0.676,0.289,1.05l0.076,0.711c0.04,0.374,0.016,0.742-0.063,1.09c0.157,0.32,0.265,0.672,0.312,1.047    l0.091,0.709c0.049,0.372,0.033,0.739-0.039,1.088c0.164,0.316,0.279,0.665,0.334,1.036l0.107,0.713    c0.056,0.371,0.047,0.736-0.017,1.086c0.17,0.312,0.293,0.655,0.356,1.025l0.122,0.71c0.064,0.372,0.064,0.739,0.007,1.093    c0.178,0.308,0.307,0.647,0.378,1.016l0.138,0.708c0.073,0.37,0.08,0.736,0.031,1.09c0.184,0.305,0.322,0.644,0.4,1.012    l0.151,0.699c0.081,0.368,0.097,0.734,0.056,1.089c0.191,0.302,0.337,0.64,0.423,1.007l0.167,0.693    c0.089,0.367,0.113,0.734,0.078,1.089c0.199,0.298,0.352,0.634,0.446,0.999l0.181,0.688c0.096,0.364,0.128,0.73,0.102,1.086    c0.203,0.291,0.362,0.622,0.465,0.982l0.198,0.692c0.104,0.36,0.144,0.726,0.125,1.081c0.209,0.288,0.376,0.613,0.487,0.973    l0.212,0.688c0.112,0.359,0.159,0.723,0.148,1.079c0.216,0.282,0.39,0.605,0.508,0.963l0.227,0.681    c0.12,0.357,0.175,0.72,0.172,1.075c0.222,0.277,0.403,0.598,0.528,0.951l0.242,0.679c0.127,0.353,0.189,0.713,0.194,1.068    c0.229,0.274,0.418,0.592,0.552,0.945l0.255,0.668c0.134,0.351,0.206,0.71,0.218,1.066c0.234,0.27,0.429,0.582,0.57,0.931    l0.269,0.66c0.143,0.347,0.221,0.705,0.241,1.06c0.239,0.262,0.438,0.568,0.587,0.912l0.282,0.653    c0.151,0.344,0.237,0.7,0.265,1.055c0.246,0.258,0.452,0.562,0.608,0.903l0.296,0.646c0.157,0.34,0.251,0.693,0.287,1.047    c0.25,0.252,0.463,0.551,0.626,0.89l0.309,0.637c0.166,0.339,0.269,0.69,0.312,1.045c0.257,0.248,0.479,0.544,0.649,0.881    l0.319,0.627c0.173,0.333,0.282,0.685,0.333,1.036c0.261,0.241,0.487,0.531,0.665,0.862l0.338,0.626    c0.179,0.33,0.295,0.677,0.354,1.027c0.267,0.237,0.5,0.521,0.686,0.851l0.352,0.618c0.186,0.326,0.309,0.671,0.375,1.02    c0.271,0.23,0.51,0.509,0.702,0.833l0.364,0.612c0.193,0.322,0.325,0.664,0.398,1.013c0.276,0.224,0.52,0.496,0.718,0.815    l0.378,0.604c0.2,0.319,0.339,0.657,0.42,1.005c0.28,0.218,0.528,0.483,0.733,0.796l0.394,0.601    c0.207,0.313,0.354,0.65,0.442,0.996c0.286,0.211,0.541,0.473,0.752,0.783l0.407,0.592c0.213,0.309,0.366,0.642,0.461,0.985    c0.29,0.206,0.552,0.462,0.77,0.768l0.418,0.582c0.22,0.304,0.38,0.634,0.482,0.974c0.296,0.201,0.564,0.454,0.791,0.757    l0.427,0.568c0.227,0.3,0.395,0.626,0.504,0.966c0.297,0.192,0.569,0.437,0.8,0.731l0.445,0.565    c0.233,0.295,0.407,0.618,0.524,0.953c0.304,0.188,0.582,0.428,0.82,0.719l0.454,0.553c0.239,0.291,0.42,0.61,0.544,0.943    c0.309,0.181,0.592,0.417,0.837,0.704l0.46,0.536c0.247,0.287,0.436,0.603,0.567,0.935c0.31,0.173,0.597,0.4,0.846,0.68    l0.48,0.538c0.252,0.278,0.446,0.59,0.584,0.917c0.317,0.169,0.611,0.392,0.869,0.67l0.483,0.517    c0.259,0.274,0.46,0.582,0.607,0.908c0.318,0.16,0.617,0.377,0.879,0.648l0.497,0.51c0.265,0.269,0.473,0.571,0.625,0.895    c0.323,0.154,0.625,0.363,0.894,0.63l0.508,0.498c0.269,0.264,0.484,0.562,0.644,0.882c0.326,0.146,0.633,0.35,0.908,0.609    l0.518,0.489c0.275,0.257,0.496,0.551,0.662,0.866c0.327,0.14,0.636,0.334,0.915,0.587l0.536,0.481    c0.28,0.252,0.507,0.541,0.68,0.853c0.332,0.134,0.647,0.324,0.933,0.572l0.537,0.462c0.286,0.246,0.521,0.531,0.701,0.84    c0.333,0.126,0.651,0.308,0.94,0.548l0.556,0.459c0.291,0.24,0.53,0.519,0.716,0.823c0.334,0.117,0.655,0.291,0.948,0.523    l0.569,0.451c0.296,0.232,0.54,0.506,0.732,0.805c0.337,0.111,0.662,0.278,0.961,0.506l0.578,0.437    c0.3,0.228,0.55,0.494,0.749,0.791c0.339,0.103,0.668,0.264,0.972,0.483l0.587,0.426c0.305,0.22,0.561,0.481,0.766,0.772    c0.345,0.098,0.679,0.253,0.989,0.469l0.585,0.405c0.311,0.214,0.574,0.472,0.786,0.76c0.347,0.089,0.685,0.237,1,0.447    l0.598,0.395c0.314,0.207,0.582,0.459,0.799,0.741c0.348,0.082,0.689,0.223,1.007,0.426l0.603,0.379    c0.32,0.201,0.594,0.446,0.818,0.725c0.351,0.075,0.693,0.209,1.018,0.404l0.611,0.366c0.325,0.194,0.604,0.435,0.833,0.709    c0.352,0.066,0.698,0.191,1.026,0.38l0.619,0.354c0.33,0.187,0.614,0.423,0.85,0.692c0.354,0.059,0.702,0.176,1.033,0.357    l0.629,0.342c0.333,0.179,0.621,0.407,0.863,0.671c0.354,0.052,0.706,0.162,1.041,0.336l0.637,0.328    c0.337,0.173,0.631,0.395,0.878,0.653c0.354,0.043,0.706,0.146,1.044,0.312l0.65,0.317c0.338,0.164,0.637,0.379,0.889,0.631    c0.356,0.037,0.712,0.132,1.054,0.291l0.65,0.301c0.344,0.157,0.647,0.366,0.906,0.614c0.354,0.027,0.71,0.114,1.054,0.266    l0.665,0.289c0.346,0.15,0.654,0.352,0.917,0.594c0.358,0.021,0.719,0.101,1.068,0.245l0.661,0.271    c0.351,0.142,0.663,0.339,0.933,0.574c0.356,0.014,0.718,0.086,1.07,0.221l0.669,0.258c0.354,0.136,0.671,0.324,0.944,0.556    c0.358,0.005,0.721,0.069,1.076,0.197l0.675,0.243c0.357,0.127,0.678,0.31,0.957,0.534c0.369-0.002,0.722,0.054,1.08,0.174    l0.68,0.229c0.36,0.118,0.686,0.294,0.969,0.514c0.361-0.011,0.724,0.037,1.085,0.15l0.683,0.214    c0.36,0.11,0.688,0.278,0.976,0.489c0.356-0.018,0.722,0.021,1.083,0.128l0.69,0.197c0.361,0.104,0.691,0.264,0.982,0.469    c0.357-0.026,0.723,0.007,1.087,0.104l0.688,0.182c0.365,0.096,0.7,0.249,0.997,0.448c0.354-0.034,0.721-0.011,1.087,0.079    l0.695,0.169c0.366,0.088,0.704,0.233,1.005,0.425c0.355-0.039,0.722-0.022,1.091,0.058l0.696,0.152    c0.368,0.08,0.708,0.218,1.012,0.403c0.354-0.05,0.719-0.041,1.087,0.032l0.708,0.139c0.369,0.072,0.711,0.203,1.019,0.381    c0.352-0.057,0.718-0.057,1.09,0.011l0.705,0.121c0.371,0.064,0.718,0.188,1.03,0.36c0.352-0.065,0.719-0.072,1.093-0.015    l0.707,0.108c0.372,0.055,0.721,0.171,1.037,0.337c0.349-0.071,0.714-0.087,1.087-0.038l0.709,0.093    c0.375,0.047,0.727,0.155,1.047,0.314c0.348-0.079,0.715-0.103,1.089-0.06l0.71,0.075c0.375,0.04,0.729,0.141,1.051,0.292    c0.345-0.086,0.709-0.117,1.084-0.084l0.718,0.063c0.375,0.031,0.729,0.124,1.055,0.269c0.343-0.093,0.709-0.133,1.083-0.106    l0.72,0.047c0.375,0.023,0.731,0.109,1.059,0.246c0.34-0.101,0.703-0.147,1.077-0.13l0.721,0.031    c0.376,0.016,0.734,0.094,1.066,0.225c0.341-0.109,0.708-0.162,1.083-0.154l0.709,0.016c0.378,0.008,0.74,0.079,1.076,0.203    c0.333-0.115,0.691-0.176,1.063-0.176c0.005,0,0.011,0,0.017,0l0.717,0.001c0.375,0,0.737,0.063,1.072,0.179    c0.334-0.121,0.691-0.19,1.066-0.197l0.719-0.015c0.373-0.006,0.738,0.047,1.076,0.155c0.333-0.13,0.691-0.208,1.068-0.222    l0.705-0.029c0.381-0.018,0.747,0.031,1.091,0.134c0.329-0.136,0.685-0.221,1.06-0.243l0.72-0.044    c0.372-0.024,0.738,0.015,1.081,0.109c0.324-0.143,0.678-0.235,1.052-0.266l0.719-0.06c0.372-0.036,0.741-0.001,1.087,0.086    c0.322-0.15,0.676-0.25,1.049-0.288l0.717-0.076c0.373-0.039,0.739-0.015,1.086,0.063c0.319-0.157,0.67-0.265,1.045-0.311    l0.709-0.091c0.373-0.049,0.742-0.032,1.092,0.041c0.317-0.164,0.666-0.28,1.038-0.335l0.708-0.104    c0.372-0.057,0.738-0.048,1.088,0.017c0.313-0.171,0.658-0.293,1.029-0.356l0.71-0.121c0.37-0.063,0.737-0.063,1.09-0.005    c0.306-0.178,0.646-0.307,1.015-0.378l0.708-0.137c0.37-0.073,0.737-0.082,1.091-0.031c0.306-0.185,0.648-0.322,1.018-0.399    l0.697-0.151c0.367-0.079,0.732-0.096,1.088-0.054c0.299-0.189,0.637-0.334,1.004-0.422l0.699-0.167    c0.364-0.088,0.73-0.111,1.084-0.076c0.298-0.197,0.632-0.35,0.997-0.443l0.689-0.182c0.364-0.096,0.729-0.128,1.088-0.101    c0.293-0.205,0.624-0.364,0.986-0.467l0.686-0.193c0.363-0.105,0.731-0.141,1.085-0.126c0.289-0.209,0.616-0.376,0.977-0.486    l0.684-0.211c0.357-0.112,0.721-0.164,1.079-0.147c0.284-0.218,0.608-0.391,0.966-0.509l0.676-0.225    c0.357-0.119,0.716-0.163,1.078-0.172c0.278-0.222,0.6-0.403,0.955-0.528l0.672-0.241c0.355-0.126,0.716-0.189,1.072-0.193    c0.274-0.229,0.591-0.417,0.944-0.55l0.667-0.255c0.352-0.136,0.712-0.206,1.068-0.218c0.27-0.234,0.58-0.429,0.93-0.569    l0.665-0.27c0.346-0.142,0.702-0.22,1.056-0.24c0.265-0.239,0.572-0.44,0.919-0.587l0.651-0.282c0.344-0.15,0.7-0.236,1.055-0.264    c0.258-0.243,0.561-0.45,0.901-0.604l0.644-0.295c0.342-0.157,0.697-0.252,1.051-0.287c0.254-0.251,0.553-0.465,0.893-0.627    l0.637-0.309c0.338-0.165,0.69-0.267,1.043-0.309c0.246-0.256,0.541-0.476,0.875-0.646l0.639-0.326    c0.332-0.17,0.682-0.278,1.031-0.329c0.242-0.261,0.53-0.487,0.863-0.664l0.625-0.336c0.33-0.18,0.679-0.296,1.029-0.354    c0.236-0.267,0.521-0.499,0.848-0.683l0.619-0.351c0.328-0.188,0.674-0.311,1.023-0.376c0.23-0.271,0.51-0.511,0.833-0.7    l0.61-0.363c0.322-0.193,0.664-0.325,1.014-0.398c0.225-0.276,0.498-0.52,0.818-0.719l0.605-0.378    c0.318-0.199,0.658-0.339,1.004-0.418c0.218-0.281,0.486-0.53,0.801-0.735l0.598-0.392c0.314-0.206,0.651-0.353,0.995-0.44    c0.214-0.286,0.478-0.542,0.789-0.754l0.585-0.402c0.311-0.214,0.645-0.368,0.989-0.463c0.206-0.29,0.463-0.551,0.77-0.769    l0.581-0.417c0.305-0.219,0.633-0.379,0.974-0.48c0.199-0.295,0.45-0.562,0.751-0.785l0.576-0.434    c0.3-0.226,0.626-0.393,0.965-0.502c0.192-0.298,0.438-0.569,0.733-0.8l0.566-0.445c0.296-0.232,0.618-0.406,0.954-0.521    c0.186-0.303,0.426-0.579,0.717-0.816l0.557-0.456c0.29-0.239,0.608-0.42,0.941-0.543c0.182-0.308,0.415-0.59,0.701-0.833    l0.545-0.468c0.286-0.244,0.602-0.432,0.932-0.563c0.174-0.313,0.404-0.602,0.688-0.853l0.527-0.472    c0.28-0.252,0.593-0.447,0.921-0.585c0.166-0.313,0.388-0.604,0.661-0.859l0.53-0.495c0.274-0.256,0.58-0.455,0.906-0.601    c0.16-0.317,0.375-0.614,0.646-0.876l0.513-0.5c0.27-0.264,0.572-0.472,0.895-0.624c0.154-0.321,0.363-0.622,0.628-0.891    l0.503-0.51c0.264-0.269,0.563-0.482,0.881-0.642c0.147-0.325,0.35-0.632,0.609-0.904l0.492-0.521    c0.257-0.275,0.551-0.494,0.866-0.66c0.14-0.33,0.337-0.643,0.593-0.923l0.479-0.527c0.251-0.28,0.54-0.507,0.852-0.68    c0.133-0.329,0.322-0.644,0.568-0.927l0.472-0.545c0.245-0.285,0.529-0.518,0.839-0.697c0.125-0.333,0.309-0.652,0.551-0.942    l0.453-0.549c0.24-0.291,0.521-0.53,0.825-0.716c0.12-0.339,0.298-0.664,0.533-0.961l0.441-0.555    c0.233-0.296,0.508-0.541,0.809-0.733c0.112-0.34,0.282-0.667,0.511-0.968l0.432-0.567c0.228-0.301,0.496-0.553,0.793-0.751    c0.104-0.343,0.268-0.673,0.49-0.978l0.418-0.577c0.221-0.307,0.485-0.563,0.778-0.768c0.097-0.344,0.251-0.677,0.466-0.985    l0.41-0.591c0.214-0.311,0.471-0.572,0.76-0.783c0.09-0.348,0.239-0.688,0.449-1.003l0.393-0.591    c0.207-0.315,0.459-0.583,0.742-0.801c0.082-0.348,0.223-0.687,0.426-1.005l0.384-0.61c0.201-0.318,0.446-0.59,0.725-0.813    c0.074-0.349,0.207-0.69,0.403-1.014l0.371-0.617c0.193-0.323,0.434-0.6,0.707-0.829c0.065-0.352,0.191-0.699,0.382-1.026    l0.355-0.621c0.187-0.327,0.421-0.61,0.69-0.845c0.059-0.354,0.177-0.703,0.359-1.034l0.343-0.63    c0.179-0.331,0.408-0.619,0.671-0.86c0.053-0.354,0.162-0.704,0.336-1.038l0.331-0.639c0.172-0.336,0.394-0.629,0.652-0.875    c0.044-0.354,0.147-0.709,0.313-1.047l0.315-0.644c0.165-0.341,0.381-0.639,0.636-0.892c0.035-0.356,0.131-0.713,0.291-1.056    l0.301-0.65c0.158-0.343,0.369-0.646,0.615-0.904c0.029-0.354,0.117-0.712,0.269-1.058l0.286-0.657    c0.151-0.347,0.354-0.655,0.597-0.919c0.021-0.356,0.101-0.715,0.245-1.064l0.273-0.666c0.143-0.35,0.34-0.661,0.576-0.93    c0.013-0.357,0.085-0.72,0.223-1.072l0.259-0.669c0.136-0.354,0.323-0.668,0.554-0.941c0.006-0.358,0.07-0.723,0.2-1.077    l0.243-0.675c0.129-0.355,0.312-0.676,0.535-0.954c-0.002-0.359,0.055-0.724,0.176-1.082l0.229-0.681    c0.121-0.358,0.297-0.683,0.516-0.966c-0.011-0.357,0.037-0.724,0.152-1.085l0.214-0.686c0.112-0.358,0.278-0.687,0.491-0.973    c-0.02-0.356,0.021-0.722,0.127-1.084l0.198-0.686c0.104-0.362,0.265-0.692,0.47-0.984c-0.025-0.356,0.007-0.723,0.105-1.087    l0.184-0.691c0.096-0.363,0.249-0.697,0.447-0.992c-0.033-0.354-0.01-0.72,0.08-1.085l0.171-0.7    c0.088-0.366,0.234-0.701,0.425-1.001c-0.041-0.354-0.023-0.722,0.059-1.089l0.153-0.697c0.079-0.369,0.218-0.71,0.405-1.014    c-0.049-0.354-0.041-0.722,0.034-1.091l0.138-0.701c0.072-0.37,0.203-0.713,0.382-1.021c-0.056-0.352-0.055-0.717,0.011-1.086    l0.124-0.712c0.063-0.369,0.188-0.715,0.359-1.026c-0.063-0.351-0.071-0.718-0.013-1.089l0.107-0.707    c0.056-0.373,0.173-0.723,0.338-1.039c-0.07-0.35-0.086-0.717-0.036-1.091l0.093-0.708c0.048-0.374,0.157-0.726,0.316-1.044    c-0.079-0.348-0.103-0.713-0.061-1.086l0.076-0.71c0.041-0.375,0.142-0.729,0.293-1.053c-0.086-0.345-0.117-0.709-0.084-1.082    l0.064-0.726c0.031-0.373,0.125-0.727,0.27-1.05c-0.094-0.345-0.133-0.709-0.106-1.082l0.048-0.72    c0.023-0.377,0.109-0.732,0.248-1.062c-0.1-0.34-0.146-0.7-0.129-1.075l0.03-0.72c0.016-0.377,0.095-0.737,0.226-1.069    c-0.108-0.34-0.163-0.704-0.153-1.081l0.016-0.709c0.007-0.379,0.079-0.741,0.203-1.078c-0.115-0.336-0.177-0.699-0.176-1.074    l0.002-0.635C389.128,255.611,389.197,255.234,389.322,254.883z M255.996,374.043c-65.109,0-118.081-52.953-118.081-118.041    S190.887,137.96,255.996,137.96c65.09,0,118.045,52.954,118.045,118.042S321.086,374.043,255.996,374.043z"/><path d="M229.475,287.001c-0.493,3.264-0.915,6.461-1.252,9.563c0.006,0.003,0.013,0.007,0.019,0.011    c0.002,0.001,0.003,0.002,0.005,0.002c0.267,0.135,0.524,0.281,0.775,0.439c0.07,0.044,0.136,0.093,0.205,0.139    c0.178,0.118,0.354,0.24,0.522,0.368c0.082,0.063,0.159,0.128,0.239,0.193c0.149,0.122,0.296,0.247,0.437,0.378    c0.08,0.073,0.157,0.147,0.234,0.225c0.133,0.132,0.262,0.267,0.387,0.405c0.072,0.082,0.145,0.162,0.214,0.244    c0.122,0.146,0.238,0.296,0.352,0.449c0.061,0.082,0.125,0.162,0.183,0.247c0.12,0.172,0.229,0.348,0.337,0.525    c0.043,0.071,0.09,0.141,0.131,0.212c0.145,0.254,0.28,0.514,0.401,0.779c0.007,0.016,0.013,0.033,0.021,0.049    c0.111,0.249,0.213,0.502,0.304,0.761c0.032,0.091,0.058,0.183,0.087,0.274c0.06,0.187,0.117,0.373,0.166,0.563    c0.027,0.11,0.049,0.222,0.074,0.333c0.039,0.176,0.073,0.354,0.102,0.533c0.019,0.117,0.034,0.236,0.048,0.355    c0.022,0.177,0.038,0.354,0.049,0.533c0.007,0.12,0.015,0.241,0.019,0.363c0.004,0.183,0.001,0.367-0.004,0.553    c-0.003,0.116-0.005,0.232-0.014,0.35c-0.013,0.203-0.038,0.405-0.064,0.608c-0.014,0.1-0.021,0.199-0.038,0.299    c-0.049,0.303-0.111,0.605-0.19,0.909c-0.087,0.322-0.195,0.635-0.313,0.941c-0.05,0.135-0.105,0.266-0.162,0.397    c-0.073,0.167-0.152,0.33-0.234,0.492c-0.148,0.296-0.312,0.581-0.49,0.857c-0.046,0.07-0.088,0.144-0.135,0.213    c-0.13,0.192-0.268,0.377-0.412,0.559c-0.025,0.031-0.051,0.062-0.077,0.093c-1.095,1.35-2.531,2.394-4.175,2.988    c0.13,14.482,3.105,19.189,4.937,19.651c0.204,0.055,0.356,0.074,0.521,0.074c4.997,0,15.308-13.738,25.307-39.247    c-4.079-3.376-8.237-7.018-12.421-10.883C240.095,285.041,234.702,286.111,229.475,287.001z"/><path d="M408.694,279.899c0.217-1.421,1.335-2.535,2.757-2.749l56.797-8.505v-25.294l-56.801-8.582    c-1.42-0.214-2.534-1.326-2.752-2.745c-1.646-10.698-4.504-21.375-8.498-31.734c-0.517-1.337-0.104-2.855,1.018-3.748    l44.936-35.729l-12.643-21.874l-53.486,20.987c-1.332,0.521-2.846,0.123-3.744-0.987c-6.982-8.601-14.793-16.426-23.219-23.257    c-1.109-0.901-1.509-2.416-0.986-3.747l20.986-53.444l-21.872-12.646l-35.776,44.938c-0.895,1.123-2.414,1.535-3.75,1.016    c-10.301-3.988-20.986-6.845-31.762-8.493c-1.423-0.218-2.537-1.335-2.75-2.757l-8.502-56.797H243.35l-8.543,56.8    c-0.213,1.42-1.326,2.536-2.746,2.753c-10.766,1.652-21.441,4.51-31.729,8.494c-1.338,0.517-2.857,0.107-3.75-1.016l-35.77-44.938    l-21.878,12.646l20.985,53.443c0.523,1.333,0.122,2.852-0.993,3.751c-8.357,6.748-16.164,14.572-23.203,23.251    c-0.9,1.11-2.415,1.508-3.746,0.988l-53.487-20.988l-12.65,21.876l44.9,35.729c1.12,0.89,1.532,2.402,1.022,3.737    c-3.985,10.427-6.831,21.105-8.459,31.741c-0.217,1.419-1.332,2.532-2.752,2.747l-56.8,8.582v25.294l56.796,8.505    c1.422,0.214,2.541,1.329,2.757,2.751c1.622,10.676,4.468,21.381,8.458,31.816c0.511,1.335,0.098,2.847-1.021,3.738l-44.9,35.729    l12.65,21.878l53.487-20.989c1.333-0.521,2.846-0.123,3.746,0.986c6.913,8.525,14.72,16.322,23.203,23.173    c1.114,0.899,1.516,2.416,0.993,3.749l-20.987,53.526l21.88,12.645l35.77-44.938c0.894-1.123,2.414-1.532,3.751-1.016    c10.287,3.986,20.961,6.844,31.727,8.492c1.419,0.218,2.533,1.335,2.747,2.755l8.543,56.799h25.296l8.502-56.797    c0.213-1.422,1.328-2.54,2.75-2.757c10.775-1.645,21.462-4.501,31.76-8.492c1.341-0.517,2.859-0.107,3.752,1.016l35.776,44.938    l21.874-12.645l-20.988-53.526c-0.521-1.33-0.123-2.845,0.986-3.745c8.553-6.934,16.363-14.731,23.219-23.177    c0.9-1.109,2.414-1.507,3.745-0.986l53.485,20.989l12.645-21.879l-44.939-35.81c-1.123-0.895-1.533-2.415-1.013-3.753    C404.191,301.354,407.049,290.682,408.694,279.899z M395.686,256.665c-0.002,0.395-0.072,0.774-0.203,1.125    c0.121,0.352,0.183,0.729,0.176,1.123l-0.018,0.758c-0.011,0.396-0.09,0.771-0.227,1.118c0.113,0.354,0.168,0.735,0.15,1.129    l-0.032,0.746c-0.018,0.398-0.105,0.775-0.251,1.123c0.105,0.357,0.151,0.741,0.127,1.135l-0.05,0.745    c-0.026,0.396-0.122,0.771-0.275,1.112c0.099,0.362,0.136,0.747,0.103,1.143l-0.064,0.737c-0.035,0.396-0.139,0.769-0.299,1.107    c0.09,0.362,0.121,0.745,0.079,1.138l-0.081,0.748c-0.044,0.394-0.156,0.763-0.322,1.099c0.082,0.364,0.104,0.749,0.053,1.141    l-0.097,0.745c-0.054,0.392-0.172,0.758-0.345,1.088c0.074,0.365,0.087,0.75,0.029,1.14l-0.113,0.745    c-0.063,0.39-0.189,0.754-0.369,1.081c0.066,0.368,0.071,0.754,0.004,1.145l-0.129,0.734c-0.068,0.391-0.203,0.753-0.393,1.077    c0.059,0.369,0.055,0.754-0.02,1.143l-0.146,0.737c-0.078,0.388-0.221,0.745-0.415,1.064c0.051,0.368,0.039,0.754-0.045,1.139    l-0.162,0.736c-0.086,0.386-0.236,0.74-0.438,1.055c0.043,0.373,0.021,0.758-0.07,1.144l-0.176,0.726    c-0.095,0.385-0.254,0.736-0.463,1.048c0.035,0.372,0.007,0.757-0.094,1.14l-0.193,0.728c-0.103,0.38-0.27,0.728-0.482,1.032    c0.027,0.373-0.011,0.757-0.119,1.137l-0.209,0.724c-0.111,0.379-0.283,0.723-0.506,1.023c0.02,0.374-0.027,0.756-0.145,1.134    l-0.225,0.722c-0.12,0.378-0.303,0.719-0.531,1.016c0.012,0.375-0.041,0.759-0.168,1.136l-0.242,0.716    c-0.127,0.375-0.316,0.712-0.551,1.003c0.002,0.375-0.059,0.758-0.193,1.132l-0.256,0.711c-0.137,0.372-0.333,0.705-0.574,0.99    c-0.006,0.375-0.076,0.756-0.218,1.127l-0.272,0.704c-0.145,0.369-0.348,0.697-0.594,0.979c-0.014,0.375-0.093,0.754-0.243,1.121    l-0.286,0.696c-0.152,0.366-0.363,0.69-0.617,0.967c-0.021,0.373-0.107,0.75-0.266,1.112l-0.302,0.692    c-0.159,0.364-0.377,0.684-0.637,0.953c-0.03,0.373-0.126,0.749-0.291,1.108l-0.317,0.686c-0.168,0.357-0.391,0.672-0.655,0.935    c-0.038,0.372-0.14,0.744-0.313,1.101l-0.332,0.678c-0.176,0.356-0.406,0.666-0.678,0.925c-0.046,0.372-0.156,0.743-0.338,1.095    l-0.346,0.668c-0.184,0.352-0.42,0.657-0.697,0.91c-0.053,0.37-0.172,0.737-0.361,1.087l-0.361,0.662    c-0.189,0.347-0.434,0.645-0.715,0.891c-0.063,0.369-0.189,0.735-0.386,1.079l-0.375,0.654c-0.196,0.342-0.446,0.635-0.732,0.874    c-0.07,0.369-0.205,0.732-0.409,1.073l-0.387,0.641c-0.205,0.339-0.461,0.627-0.754,0.861c-0.078,0.368-0.222,0.728-0.432,1.063    l-0.401,0.634c-0.212,0.333-0.474,0.616-0.771,0.844c-0.086,0.364-0.236,0.719-0.454,1.05l-0.421,0.636    c-0.218,0.325-0.484,0.6-0.783,0.819c-0.094,0.362-0.252,0.714-0.477,1.04l-0.428,0.617c-0.227,0.325-0.502,0.597-0.809,0.813    c-0.102,0.359-0.266,0.708-0.497,1.028l-0.444,0.611c-0.232,0.318-0.512,0.582-0.821,0.791c-0.11,0.356-0.282,0.7-0.521,1.017    l-0.457,0.602c-0.24,0.314-0.523,0.572-0.838,0.771c-0.117,0.355-0.297,0.695-0.541,1.007l-0.472,0.595    c-0.246,0.306-0.536,0.557-0.853,0.751c-0.125,0.352-0.312,0.688-0.563,0.993l-0.48,0.582c-0.253,0.303-0.55,0.55-0.873,0.736    c-0.131,0.351-0.326,0.684-0.584,0.982l-0.489,0.564c-0.26,0.3-0.562,0.541-0.892,0.723c-0.139,0.346-0.34,0.675-0.604,0.969    l-0.507,0.561c-0.266,0.29-0.569,0.522-0.899,0.694c-0.146,0.345-0.354,0.67-0.625,0.958l-0.516,0.547    c-0.271,0.286-0.583,0.513-0.918,0.679c-0.154,0.34-0.369,0.66-0.645,0.942l-0.527,0.535c-0.277,0.281-0.594,0.501-0.933,0.66    c-0.161,0.337-0.383,0.651-0.665,0.928l-0.537,0.523c-0.284,0.275-0.604,0.488-0.947,0.641c-0.168,0.335-0.396,0.645-0.686,0.915    l-0.543,0.506c-0.29,0.271-0.617,0.479-0.963,0.624c-0.175,0.329-0.408,0.634-0.703,0.897l-0.566,0.506    c-0.293,0.26-0.62,0.458-0.966,0.593c-0.183,0.328-0.425,0.628-0.726,0.886l-0.566,0.485c-0.301,0.256-0.635,0.448-0.984,0.579    c-0.191,0.322-0.439,0.618-0.744,0.869l-0.577,0.472c-0.307,0.251-0.646,0.436-0.998,0.56c-0.196,0.317-0.45,0.606-0.762,0.852    l-0.585,0.46c-0.313,0.243-0.654,0.422-1.011,0.537c-0.203,0.313-0.464,0.598-0.78,0.835l-0.596,0.446    c-0.316,0.237-0.661,0.408-1.02,0.517c-0.21,0.31-0.477,0.588-0.799,0.819l-0.608,0.437c-0.321,0.229-0.67,0.392-1.029,0.49    c-0.216,0.304-0.485,0.574-0.81,0.798l-0.621,0.427c-0.326,0.222-0.678,0.377-1.037,0.469c-0.223,0.298-0.501,0.565-0.83,0.781    l-0.627,0.41c-0.33,0.216-0.686,0.364-1.049,0.448c-0.229,0.295-0.513,0.555-0.847,0.765l-0.636,0.396    c-0.334,0.208-0.691,0.348-1.057,0.425c-0.234,0.288-0.522,0.542-0.859,0.745l-0.648,0.384c-0.34,0.2-0.7,0.333-1.066,0.401    c-0.239,0.283-0.533,0.53-0.875,0.726l-0.652,0.368c-0.345,0.194-0.708,0.319-1.075,0.379c-0.247,0.278-0.546,0.52-0.892,0.707    l-0.662,0.356c-0.347,0.186-0.712,0.303-1.08,0.355c-0.254,0.273-0.561,0.509-0.911,0.69l-0.665,0.337    c-0.35,0.179-0.719,0.288-1.088,0.333c-0.259,0.267-0.568,0.495-0.922,0.668l-0.678,0.327c-0.354,0.17-0.724,0.271-1.092,0.308    c-0.266,0.262-0.578,0.482-0.936,0.646l-0.684,0.313c-0.359,0.162-0.73,0.255-1.102,0.284c-0.271,0.256-0.589,0.47-0.951,0.626    l-0.688,0.297c-0.36,0.154-0.732,0.239-1.104,0.26c-0.276,0.251-0.6,0.46-0.965,0.608l-0.694,0.282    c-0.367,0.147-0.744,0.224-1.118,0.237c-0.281,0.245-0.609,0.446-0.979,0.588l-0.703,0.269c-0.369,0.139-0.748,0.208-1.121,0.212    c-0.288,0.24-0.621,0.435-0.992,0.569l-0.711,0.253c-0.371,0.132-0.748,0.195-1.124,0.188c-0.292,0.232-0.629,0.419-1.003,0.545    l-0.716,0.238c-0.374,0.123-0.751,0.179-1.13,0.163c-0.296,0.227-0.637,0.406-1.014,0.523l-0.721,0.222    c-0.377,0.114-0.764,0.155-1.133,0.14c-0.301,0.22-0.646,0.392-1.024,0.5l-0.726,0.207c-0.38,0.108-0.762,0.145-1.136,0.115    c-0.306,0.213-0.653,0.377-1.034,0.478l-0.73,0.192c-0.383,0.098-0.768,0.125-1.139,0.09c-0.311,0.207-0.664,0.364-1.049,0.458    l-0.729,0.173c-0.384,0.09-0.77,0.109-1.141,0.065c-0.315,0.2-0.672,0.35-1.059,0.434l-0.738,0.159    c-0.384,0.082-0.768,0.094-1.138,0.041c-0.318,0.191-0.677,0.334-1.063,0.409l-0.674,0.131c-0.4,0.076-0.8,0.078-1.182,0.014    c-0.331,0.194-0.702,0.334-1.104,0.403l-0.735,0.125c-0.39,0.067-0.775,0.061-1.144-0.007c-0.328,0.179-0.693,0.306-1.084,0.365    l-0.744,0.109c-0.39,0.059-0.775,0.043-1.141-0.033c-0.332,0.172-0.697,0.289-1.088,0.341l-0.746,0.095    c-0.393,0.047-0.777,0.026-1.142-0.058c-0.336,0.166-0.706,0.275-1.101,0.318l-0.742,0.078c-0.393,0.041-0.778,0.011-1.142-0.082    c-0.337,0.158-0.709,0.26-1.103,0.295l-0.716,0.059c-0.399,0.037-0.79-0.006-1.157-0.108c-0.348,0.153-0.727,0.251-1.127,0.276    l-0.744,0.047c-0.398,0.02-0.78-0.024-1.139-0.132c-0.343,0.142-0.716,0.228-1.107,0.245l-0.754,0.031    c-0.393,0.017-0.773-0.04-1.126-0.153c-0.348,0.136-0.724,0.214-1.118,0.223l-0.745,0.015c-0.384,0.021-0.78-0.056-1.134-0.179    c-0.352,0.128-0.731,0.199-1.126,0.199l-0.75-0.001c-0.395-0.002-0.772-0.073-1.122-0.202c-0.353,0.119-0.737,0.19-1.124,0.175    l-0.759-0.017c-0.394-0.012-0.769-0.09-1.115-0.227c-0.357,0.113-0.739,0.166-1.133,0.152l-0.746-0.033    c-0.396-0.018-0.773-0.105-1.119-0.25c-0.359,0.106-0.744,0.153-1.138,0.128l-0.745-0.049c-0.394-0.026-0.768-0.123-1.11-0.273    c-0.361,0.099-0.744,0.137-1.139,0.103l-0.744-0.064c-0.395-0.035-0.766-0.138-1.106-0.298c-0.362,0.092-0.747,0.12-1.139,0.08    l-0.749-0.08c-0.393-0.045-0.761-0.156-1.095-0.321c-0.363,0.083-0.747,0.103-1.139,0.055l-0.746-0.098    c-0.393-0.052-0.76-0.171-1.092-0.345c-0.365,0.076-0.75,0.087-1.142,0.03l-0.744-0.113c-0.389-0.061-0.752-0.188-1.079-0.367    c-0.367,0.067-0.752,0.072-1.142,0.006l-0.742-0.129c-0.389-0.069-0.75-0.203-1.072-0.392c-0.37,0.06-0.756,0.057-1.145-0.019    l-0.732-0.144c-0.389-0.077-0.748-0.22-1.068-0.415c-0.37,0.051-0.756,0.039-1.142-0.044l-0.737-0.162    c-0.384-0.085-0.739-0.234-1.052-0.436c-0.372,0.042-0.756,0.023-1.14-0.069l-0.732-0.176c-0.383-0.095-0.735-0.253-1.045-0.46    c-0.37,0.036-0.755,0.007-1.136-0.093l-0.729-0.193c-0.381-0.103-0.729-0.268-1.035-0.481c-0.376,0.029-0.759-0.011-1.14-0.119    l-0.719-0.207c-0.379-0.11-0.723-0.284-1.024-0.504c-0.37,0.018-0.755-0.026-1.133-0.143l-0.723-0.225    c-0.379-0.12-0.72-0.302-1.018-0.531c-0.377,0.012-0.757-0.041-1.133-0.166l-0.716-0.24c-0.376-0.128-0.714-0.316-1.006-0.552    c-0.377-0.016-0.757-0.059-1.13-0.191l-0.71-0.256c-0.373-0.136-0.707-0.331-0.994-0.573c-0.375-0.005-0.755-0.075-1.125-0.216    l-0.706-0.271c-0.37-0.145-0.699-0.348-0.981-0.595c-0.373-0.013-0.752-0.092-1.119-0.241l-0.701-0.286    c-0.365-0.152-0.689-0.362-0.965-0.615c-0.374-0.021-0.752-0.107-1.116-0.266l-0.686-0.298c-0.365-0.159-0.687-0.378-0.958-0.639    c-0.373-0.029-0.747-0.124-1.106-0.288l-0.686-0.316c-0.359-0.168-0.674-0.392-0.939-0.657c-0.374-0.036-0.747-0.14-1.104-0.313    l-0.674-0.329c-0.357-0.174-0.667-0.406-0.927-0.678c-0.371-0.046-0.741-0.155-1.093-0.336l-0.671-0.346    c-0.352-0.182-0.657-0.42-0.91-0.695c-0.371-0.054-0.737-0.172-1.086-0.359l-0.663-0.361c-0.348-0.19-0.647-0.434-0.893-0.714    c-0.369-0.062-0.732-0.188-1.076-0.382l-0.657-0.376c-0.343-0.197-0.637-0.448-0.877-0.733c-0.367-0.069-0.729-0.203-1.068-0.406    l-0.65-0.39c-0.337-0.203-0.625-0.46-0.859-0.751c-0.366-0.076-0.724-0.219-1.06-0.428l-0.641-0.405    c-0.333-0.211-0.616-0.473-0.843-0.769c-0.365-0.086-0.721-0.235-1.052-0.453l-0.627-0.415c-0.33-0.219-0.606-0.486-0.826-0.787    c-0.363-0.093-0.715-0.25-1.041-0.474l-0.623-0.432c-0.323-0.225-0.594-0.498-0.808-0.803c-0.361-0.102-0.711-0.268-1.033-0.499    l-0.601-0.436c-0.322-0.233-0.589-0.516-0.799-0.826c-0.359-0.11-0.704-0.282-1.021-0.521l-0.592-0.447    c-0.317-0.24-0.578-0.527-0.78-0.844c-0.356-0.117-0.698-0.296-1.01-0.542l-0.583-0.461c-0.312-0.247-0.567-0.54-0.763-0.861    c-0.353-0.123-0.69-0.311-0.996-0.563l-0.575-0.476c-0.305-0.253-0.553-0.55-0.741-0.873c-0.349-0.132-0.681-0.325-0.98-0.582    l-0.575-0.496c-0.297-0.258-0.536-0.559-0.716-0.884c-0.347-0.14-0.675-0.34-0.969-0.604l-0.555-0.5    c-0.294-0.265-0.53-0.572-0.704-0.903c-0.344-0.146-0.668-0.355-0.957-0.625l-0.55-0.518c-0.286-0.271-0.511-0.582-0.678-0.915    c-0.339-0.153-0.659-0.368-0.941-0.644l-0.539-0.529c-0.28-0.276-0.5-0.592-0.659-0.929c-0.335-0.16-0.65-0.382-0.927-0.664    l-0.527-0.54c-0.274-0.282-0.487-0.602-0.64-0.942c-0.333-0.168-0.642-0.396-0.913-0.683l-0.518-0.555    c-0.266-0.288-0.472-0.611-0.616-0.953c-0.331-0.176-0.637-0.41-0.901-0.705l-0.498-0.557c-0.264-0.294-0.464-0.625-0.601-0.973    c-0.325-0.182-0.624-0.422-0.881-0.72l-0.494-0.576c-0.254-0.299-0.446-0.631-0.576-0.979c-0.322-0.189-0.617-0.438-0.869-0.742    l-0.477-0.581c-0.249-0.305-0.434-0.642-0.557-0.993c-0.317-0.196-0.607-0.449-0.853-0.76l-0.461-0.587    c-0.244-0.312-0.423-0.654-0.538-1.01c-0.314-0.202-0.597-0.462-0.834-0.777l-0.454-0.603c-0.234-0.316-0.404-0.658-0.511-1.014    c-0.31-0.21-0.588-0.476-0.82-0.797l-0.437-0.607c-0.23-0.321-0.393-0.67-0.493-1.029c-0.305-0.217-0.577-0.487-0.801-0.813    l-0.423-0.614c-0.223-0.326-0.378-0.678-0.471-1.04c-0.299-0.222-0.565-0.498-0.782-0.827l-0.409-0.623    c-0.218-0.332-0.367-0.689-0.452-1.055c-0.294-0.228-0.554-0.511-0.764-0.844l-0.397-0.636c-0.209-0.335-0.35-0.692-0.426-1.058    c-0.289-0.234-0.543-0.523-0.747-0.861l-0.383-0.646c-0.201-0.338-0.333-0.698-0.402-1.063c-0.285-0.241-0.533-0.536-0.729-0.878    l-0.37-0.653c-0.193-0.343-0.317-0.705-0.378-1.071c-0.28-0.247-0.521-0.547-0.71-0.893l-0.356-0.661    c-0.186-0.347-0.302-0.712-0.355-1.081c-0.273-0.251-0.508-0.555-0.688-0.904l-0.345-0.676c-0.176-0.35-0.285-0.715-0.33-1.082    c-0.267-0.258-0.495-0.565-0.668-0.919l-0.328-0.677c-0.17-0.355-0.272-0.725-0.309-1.095c-0.263-0.266-0.484-0.578-0.649-0.936    l-0.312-0.682c-0.163-0.358-0.256-0.73-0.286-1.101c-0.256-0.269-0.47-0.587-0.627-0.948l-0.298-0.688    c-0.155-0.363-0.24-0.736-0.262-1.107c-0.25-0.274-0.458-0.597-0.606-0.961l-0.286-0.699c-0.147-0.366-0.224-0.743-0.237-1.116    c-0.246-0.282-0.448-0.61-0.59-0.979l-0.269-0.705c-0.139-0.367-0.208-0.744-0.212-1.116c-0.241-0.288-0.436-0.622-0.57-0.996    l-0.251-0.702c-0.132-0.374-0.193-0.754-0.189-1.13c-0.233-0.291-0.421-0.628-0.547-1.004l-0.237-0.711    c-0.124-0.375-0.177-0.758-0.165-1.131c-0.227-0.298-0.407-0.639-0.525-1.018l-0.22-0.714c-0.116-0.379-0.161-0.762-0.141-1.136    c-0.221-0.302-0.394-0.646-0.503-1.027l-0.206-0.72c-0.108-0.381-0.144-0.765-0.116-1.139c-0.213-0.306-0.378-0.654-0.479-1.035    l-0.192-0.73c-0.098-0.382-0.125-0.766-0.09-1.137c-0.208-0.311-0.364-0.662-0.458-1.045l-0.175-0.734    c-0.091-0.384-0.11-0.769-0.066-1.139c-0.2-0.314-0.35-0.669-0.435-1.054l-0.159-0.735c-0.083-0.389-0.094-0.773-0.042-1.145    c-0.194-0.319-0.336-0.678-0.412-1.066l-0.142-0.73c-0.076-0.391-0.079-0.778-0.019-1.148c-0.186-0.323-0.319-0.684-0.388-1.073    l-0.126-0.735c-0.067-0.392-0.061-0.779,0.006-1.147c-0.179-0.329-0.306-0.694-0.365-1.086l-0.11-0.738    c-0.058-0.392-0.044-0.776,0.032-1.144c-0.172-0.331-0.291-0.698-0.342-1.091l-0.095-0.745c-0.049-0.392-0.027-0.776,0.058-1.141    c-0.166-0.335-0.275-0.702-0.319-1.095l-0.08-0.748c-0.04-0.394-0.01-0.778,0.082-1.141c-0.157-0.34-0.26-0.712-0.293-1.105    l-0.063-0.742c-0.033-0.396,0.006-0.78,0.105-1.141c-0.151-0.343-0.245-0.716-0.271-1.109l-0.047-0.751    c-0.024-0.395,0.023-0.776,0.13-1.134c-0.144-0.347-0.231-0.723-0.247-1.118l-0.031-0.742c-0.016-0.395,0.039-0.775,0.153-1.131    c-0.135-0.348-0.213-0.725-0.222-1.119l-0.016-0.744c-0.008-0.396,0.056-0.777,0.178-1.131c-0.13-0.354-0.201-0.733-0.201-1.13    l0.001-0.744c0.002-0.396,0.072-0.774,0.203-1.125c-0.122-0.353-0.184-0.732-0.177-1.126l0.017-0.751    c0.009-0.396,0.088-0.772,0.225-1.12c-0.114-0.357-0.168-0.739-0.152-1.135l0.032-0.745c0.018-0.395,0.105-0.771,0.249-1.117    c-0.106-0.358-0.153-0.74-0.128-1.135l0.048-0.75c0.026-0.395,0.122-0.767,0.273-1.108c-0.098-0.359-0.137-0.742-0.104-1.136    l0.065-0.749c0.035-0.394,0.138-0.766,0.296-1.105c-0.091-0.362-0.121-0.747-0.08-1.139l0.08-0.742    c0.043-0.395,0.155-0.765,0.321-1.101c-0.083-0.363-0.105-0.748-0.055-1.14l0.095-0.739c0.051-0.395,0.17-0.763,0.344-1.097    c-0.075-0.366-0.088-0.752-0.029-1.144l0.112-0.738c0.06-0.392,0.187-0.756,0.367-1.083c-0.068-0.368-0.072-0.753-0.006-1.144    l0.129-0.741c0.069-0.389,0.203-0.75,0.39-1.072c-0.059-0.368-0.056-0.752,0.018-1.14l0.145-0.738    c0.077-0.389,0.22-0.748,0.415-1.067c-0.052-0.371-0.041-0.756,0.044-1.142l0.159-0.731c0.085-0.386,0.235-0.741,0.437-1.057    c-0.043-0.371-0.024-0.757,0.068-1.142l0.176-0.731c0.094-0.383,0.251-0.734,0.459-1.044c-0.036-0.373-0.007-0.756,0.092-1.139    l0.192-0.729c0.103-0.381,0.268-0.729,0.482-1.035c-0.027-0.372,0.009-0.755,0.117-1.135l0.208-0.725    c0.11-0.379,0.283-0.723,0.503-1.023c-0.02-0.374,0.025-0.756,0.143-1.134l0.224-0.722c0.119-0.379,0.301-0.721,0.53-1.019    c-0.012-0.375,0.041-0.757,0.167-1.134l0.241-0.717c0.127-0.375,0.316-0.713,0.55-1.005c-0.002-0.375,0.059-0.757,0.191-1.131    l0.256-0.711c0.135-0.373,0.332-0.706,0.572-0.992c0.005-0.375,0.074-0.756,0.216-1.126l0.273-0.71    c0.143-0.368,0.345-0.695,0.591-0.975c0.013-0.375,0.091-0.753,0.241-1.121l0.287-0.699c0.151-0.366,0.36-0.689,0.613-0.966    c0.022-0.375,0.108-0.753,0.266-1.118l0.3-0.687c0.159-0.363,0.376-0.685,0.636-0.956c0.029-0.373,0.124-0.747,0.289-1.107    l0.318-0.69c0.167-0.357,0.389-0.67,0.653-0.934c0.038-0.373,0.14-0.748,0.314-1.105l0.328-0.672    c0.175-0.357,0.406-0.667,0.677-0.926c0.045-0.372,0.156-0.742,0.336-1.094l0.346-0.671c0.182-0.352,0.419-0.656,0.694-0.909    c0.053-0.371,0.172-0.738,0.36-1.086l0.362-0.668c0.189-0.345,0.432-0.643,0.711-0.888c0.062-0.369,0.188-0.733,0.382-1.077    l0.379-0.663c0.196-0.34,0.445-0.631,0.729-0.871c0.069-0.367,0.203-0.729,0.405-1.069l0.391-0.651    c0.204-0.337,0.459-0.625,0.75-0.858c0.077-0.365,0.219-0.724,0.428-1.06l0.404-0.641c0.211-0.332,0.473-0.614,0.768-0.842    c0.086-0.365,0.236-0.722,0.454-1.054l0.415-0.627c0.219-0.329,0.486-0.605,0.787-0.826c0.092-0.362,0.25-0.714,0.474-1.04    l0.426-0.619c0.226-0.325,0.501-0.597,0.807-0.813c0.101-0.359,0.266-0.708,0.496-1.029l0.438-0.606    c0.233-0.321,0.514-0.588,0.826-0.798c0.109-0.359,0.281-0.705,0.52-1.021l0.448-0.592c0.24-0.317,0.527-0.578,0.844-0.781    c0.116-0.356,0.296-0.698,0.542-1.009l0.46-0.583c0.247-0.311,0.539-0.565,0.859-0.762c0.124-0.352,0.311-0.689,0.56-0.994    l0.479-0.579c0.253-0.305,0.55-0.552,0.874-0.74c0.131-0.35,0.324-0.682,0.581-0.982l0.496-0.574    c0.258-0.297,0.558-0.536,0.884-0.716c0.138-0.348,0.339-0.676,0.604-0.971l0.5-0.554c0.266-0.294,0.572-0.528,0.903-0.703    c0.146-0.344,0.355-0.669,0.625-0.958l0.512-0.543c0.271-0.29,0.583-0.517,0.919-0.685c0.154-0.34,0.368-0.66,0.643-0.943    l0.526-0.535c0.277-0.281,0.594-0.501,0.931-0.662c0.161-0.337,0.383-0.652,0.665-0.928l0.54-0.527    c0.283-0.274,0.603-0.488,0.942-0.64c0.167-0.333,0.396-0.644,0.683-0.914l0.552-0.515c0.288-0.268,0.613-0.474,0.956-0.62    c0.175-0.33,0.41-0.636,0.705-0.9l0.552-0.495c0.296-0.264,0.627-0.466,0.976-0.604c0.182-0.326,0.422-0.625,0.72-0.883    l0.577-0.494c0.299-0.254,0.63-0.446,0.978-0.575c0.188-0.321,0.436-0.616,0.739-0.867l0.583-0.479    c0.306-0.25,0.642-0.436,0.995-0.559c0.196-0.317,0.449-0.607,0.76-0.852l0.589-0.464c0.312-0.242,0.653-0.421,1.007-0.535    c0.202-0.313,0.461-0.596,0.774-0.834l0.602-0.453c0.316-0.236,0.66-0.406,1.017-0.515c0.208-0.308,0.474-0.585,0.792-0.817    l0.608-0.438c0.321-0.23,0.67-0.395,1.031-0.494c0.216-0.305,0.488-0.579,0.813-0.803l0.613-0.422    c0.327-0.223,0.679-0.38,1.042-0.472c0.222-0.299,0.499-0.565,0.827-0.782l0.63-0.414c0.331-0.215,0.685-0.363,1.046-0.447    c0.229-0.295,0.511-0.555,0.844-0.765l0.636-0.398c0.334-0.208,0.692-0.348,1.056-0.425c0.234-0.29,0.523-0.544,0.862-0.748    l0.641-0.382c0.34-0.202,0.701-0.335,1.068-0.404c0.242-0.286,0.537-0.534,0.879-0.729l0.648-0.368    c0.344-0.194,0.708-0.319,1.076-0.381c0.247-0.279,0.546-0.521,0.893-0.708l0.66-0.356c0.346-0.186,0.711-0.302,1.078-0.355    c0.253-0.274,0.557-0.509,0.908-0.69l0.67-0.343c0.351-0.177,0.717-0.286,1.086-0.331c0.257-0.267,0.565-0.495,0.918-0.668    l0.677-0.329c0.354-0.17,0.724-0.272,1.093-0.309c0.265-0.263,0.579-0.484,0.937-0.65l0.677-0.31    c0.359-0.165,0.732-0.258,1.104-0.288c0.269-0.256,0.587-0.471,0.948-0.629l0.688-0.297c0.362-0.154,0.735-0.24,1.105-0.262    c0.275-0.25,0.598-0.458,0.962-0.607l0.7-0.286c0.365-0.147,0.741-0.224,1.113-0.237c0.282-0.246,0.61-0.448,0.979-0.59l0.7-0.268    c0.37-0.14,0.75-0.21,1.124-0.214c0.288-0.241,0.621-0.435,0.993-0.569l0.706-0.252c0.373-0.133,0.729-0.188,1.126-0.19    c0.291-0.232,0.627-0.419,1-0.545l0.716-0.24c0.376-0.125,0.758-0.177,1.13-0.165c0.296-0.227,0.637-0.406,1.013-0.524    l0.719-0.223c0.378-0.116,0.765-0.161,1.135-0.141c0.302-0.221,0.647-0.394,1.028-0.503l0.718-0.205    c0.381-0.109,0.762-0.145,1.139-0.117c0.307-0.214,0.655-0.379,1.038-0.481l0.724-0.19c0.383-0.1,0.768-0.129,1.141-0.092    c0.311-0.208,0.663-0.365,1.047-0.458l0.732-0.175c0.385-0.091,0.769-0.109,1.139-0.066c0.315-0.201,0.67-0.351,1.056-0.436    l0.736-0.16c0.386-0.082,0.771-0.092,1.14-0.042c0.32-0.195,0.68-0.336,1.068-0.413l0.732-0.143    c0.388-0.076,0.775-0.078,1.145-0.019c0.324-0.187,0.686-0.321,1.075-0.39l0.74-0.127c0.389-0.067,0.775-0.061,1.142,0.007    c0.327-0.179,0.69-0.306,1.081-0.365l0.744-0.111c0.392-0.059,0.776-0.043,1.143,0.031c0.332-0.173,0.699-0.291,1.092-0.342    l0.74-0.095c0.392-0.051,0.778-0.029,1.143,0.056c0.335-0.166,0.705-0.276,1.098-0.319l0.749-0.08    c0.392-0.041,0.776-0.009,1.137,0.082c0.338-0.159,0.708-0.261,1.101-0.296l0.75-0.064c0.395-0.032,0.779,0.006,1.14,0.106    c0.341-0.151,0.715-0.246,1.109-0.271l0.745-0.048c0.392-0.026,0.779,0.022,1.138,0.129c0.345-0.144,0.72-0.231,1.116-0.249    l0.751-0.031c0.393-0.018,0.774,0.04,1.128,0.152c0.346-0.134,0.721-0.213,1.114-0.222l0.75-0.017    c0.384-0.007,0.776,0.056,1.129,0.178c0.349-0.128,0.726-0.2,1.119-0.201l0.366-0.001l0.752,0.002    c0.394,0.003,0.773,0.074,1.123,0.204c0.353-0.12,0.733-0.179,1.127-0.174l0.752,0.017c0.396,0.011,0.771,0.091,1.119,0.228    c0.357-0.113,0.738-0.167,1.135-0.15l0.745,0.034c0.396,0.019,0.771,0.106,1.118,0.251c0.357-0.105,0.738-0.15,1.135-0.126    l0.75,0.05c0.393,0.027,0.767,0.123,1.107,0.274c0.359-0.098,0.74-0.134,1.135-0.102l0.749,0.066    c0.395,0.036,0.767,0.139,1.104,0.298c0.363-0.089,0.748-0.119,1.142-0.077l0.742,0.081c0.395,0.044,0.764,0.155,1.1,0.323    c0.363-0.082,0.748-0.103,1.14-0.053l0.739,0.097c0.395,0.052,0.764,0.172,1.095,0.347c0.368-0.075,0.753-0.087,1.145-0.028    l0.739,0.113c0.391,0.061,0.756,0.188,1.083,0.37c0.368-0.067,0.754-0.071,1.142-0.003l0.742,0.129    c0.389,0.069,0.749,0.205,1.072,0.393c0.367-0.058,0.752-0.054,1.139,0.021l0.738,0.146c0.389,0.078,0.747,0.221,1.066,0.416    c0.369-0.05,0.757-0.04,1.143,0.046l0.73,0.16c0.387,0.086,0.742,0.237,1.057,0.439c0.369-0.043,0.757-0.022,1.141,0.07    l0.733,0.178c0.383,0.095,0.732,0.252,1.042,0.46c0.371-0.036,0.756-0.006,1.138,0.095l0.728,0.193    c0.382,0.103,0.729,0.269,1.035,0.484c0.369-0.028,0.754,0.01,1.133,0.119l0.725,0.209c0.379,0.111,0.723,0.285,1.024,0.506    c0.372-0.019,0.755,0.027,1.132,0.144l0.723,0.226c0.379,0.12,0.72,0.302,1.018,0.532c0.379-0.012,0.756,0.043,1.133,0.168    l0.719,0.242c0.373,0.128,0.709,0.317,1,0.552c0.375,0.011,0.758,0.06,1.132,0.193l0.712,0.258    c0.371,0.136,0.703,0.333,0.99,0.573c0.374,0.005,0.754,0.076,1.125,0.218l0.705,0.272c0.369,0.144,0.697,0.348,0.979,0.596    c0.375,0.014,0.753,0.092,1.121,0.242l0.701,0.289c0.363,0.152,0.688,0.362,0.963,0.615c0.373,0.022,0.752,0.109,1.115,0.267    l0.688,0.301c0.363,0.159,0.682,0.377,0.953,0.637c0.373,0.03,0.748,0.125,1.107,0.291l0.686,0.317    c0.359,0.168,0.674,0.393,0.938,0.657c0.371,0.039,0.743,0.141,1.098,0.314l0.679,0.332c0.356,0.175,0.667,0.407,0.925,0.679    c0.372,0.046,0.742,0.158,1.094,0.338l0.668,0.345c0.352,0.183,0.656,0.421,0.909,0.698c0.372,0.054,0.738,0.173,1.087,0.363    l0.662,0.36c0.347,0.19,0.645,0.434,0.893,0.716c0.369,0.062,0.733,0.188,1.078,0.385l0.654,0.375    c0.342,0.198,0.635,0.448,0.875,0.734c0.368,0.071,0.73,0.205,1.07,0.409l0.646,0.389c0.338,0.205,0.625,0.46,0.857,0.751    c0.368,0.078,0.728,0.222,1.063,0.433l0.63,0.398c0.337,0.212,0.62,0.477,0.849,0.775c0.363,0.086,0.718,0.235,1.047,0.452    l0.636,0.421c0.325,0.219,0.601,0.485,0.819,0.785c0.365,0.094,0.717,0.252,1.044,0.479l0.612,0.424    c0.326,0.227,0.598,0.502,0.813,0.81c0.36,0.101,0.708,0.266,1.028,0.497l0.611,0.444c0.318,0.232,0.584,0.512,0.791,0.823    c0.356,0.109,0.701,0.281,1.017,0.519l0.603,0.458c0.313,0.24,0.571,0.525,0.773,0.84c0.353,0.116,0.693,0.295,1.004,0.54    l0.594,0.472c0.307,0.245,0.558,0.535,0.752,0.853c0.352,0.124,0.688,0.31,0.994,0.562l0.58,0.481    c0.303,0.253,0.55,0.549,0.737,0.872c0.35,0.132,0.683,0.327,0.983,0.585l0.563,0.489c0.301,0.26,0.541,0.563,0.722,0.89    c0.348,0.14,0.677,0.341,0.97,0.606l0.559,0.503c0.291,0.266,0.525,0.572,0.698,0.903c0.343,0.146,0.667,0.354,0.955,0.625    l0.546,0.515c0.287,0.271,0.514,0.584,0.681,0.918c0.339,0.153,0.659,0.369,0.941,0.645l0.536,0.527    c0.28,0.278,0.5,0.594,0.66,0.933c0.336,0.161,0.65,0.383,0.928,0.665l0.52,0.534c0.277,0.286,0.492,0.608,0.645,0.951    c0.334,0.168,0.644,0.398,0.914,0.686l0.506,0.543c0.271,0.291,0.479,0.618,0.624,0.963c0.329,0.175,0.633,0.409,0.896,0.702    l0.505,0.566c0.26,0.294,0.458,0.622,0.596,0.967c0.325,0.183,0.625,0.425,0.883,0.725l0.486,0.567    c0.256,0.301,0.449,0.635,0.58,0.986c0.322,0.189,0.616,0.438,0.867,0.743l0.473,0.576c0.25,0.307,0.436,0.646,0.559,0.999    c0.317,0.197,0.607,0.451,0.852,0.761l0.46,0.587c0.243,0.312,0.423,0.654,0.537,1.01c0.313,0.203,0.598,0.464,0.835,0.779    l0.447,0.597c0.236,0.316,0.408,0.664,0.516,1.022c0.309,0.21,0.586,0.476,0.817,0.796l0.437,0.609    c0.229,0.32,0.392,0.669,0.49,1.028c0.305,0.216,0.575,0.487,0.799,0.811l0.424,0.618c0.224,0.327,0.379,0.68,0.471,1.042    c0.299,0.223,0.565,0.5,0.781,0.829l0.41,0.627c0.217,0.332,0.364,0.688,0.449,1.051c0.294,0.229,0.554,0.512,0.763,0.846    l0.396,0.635c0.209,0.335,0.35,0.693,0.424,1.057c0.289,0.235,0.543,0.522,0.746,0.86l0.384,0.648    c0.201,0.339,0.333,0.699,0.401,1.065c0.283,0.241,0.53,0.534,0.727,0.875l0.368,0.654c0.193,0.344,0.318,0.708,0.379,1.076    c0.279,0.247,0.521,0.547,0.708,0.894l0.354,0.658c0.186,0.348,0.302,0.713,0.354,1.081c0.275,0.254,0.51,0.56,0.69,0.911    l0.339,0.664c0.178,0.353,0.287,0.721,0.332,1.091c0.268,0.259,0.496,0.568,0.669,0.923l0.326,0.675    c0.17,0.354,0.271,0.724,0.308,1.093c0.26,0.265,0.48,0.578,0.646,0.934l0.313,0.685c0.162,0.359,0.255,0.731,0.283,1.103    c0.256,0.27,0.471,0.588,0.626,0.949l0.297,0.686c0.155,0.362,0.239,0.736,0.261,1.107c0.25,0.275,0.459,0.6,0.607,0.965    l0.281,0.694c0.148,0.367,0.226,0.746,0.238,1.119c0.244,0.281,0.444,0.61,0.587,0.978l0.267,0.703    c0.142,0.371,0.209,0.75,0.214,1.124c0.239,0.286,0.433,0.619,0.566,0.99l0.253,0.709c0.131,0.373,0.191,0.753,0.188,1.126    c0.232,0.292,0.419,0.63,0.546,1.004l0.236,0.715c0.123,0.376,0.175,0.757,0.163,1.13c0.226,0.296,0.405,0.637,0.522,1.014    l0.221,0.719c0.115,0.378,0.16,0.762,0.14,1.134c0.22,0.302,0.392,0.646,0.501,1.025l0.207,0.726    c0.106,0.38,0.143,0.764,0.113,1.136c0.215,0.307,0.379,0.656,0.48,1.04l0.189,0.724c0.099,0.384,0.126,0.769,0.09,1.141    c0.206,0.312,0.363,0.664,0.456,1.048l0.173,0.729c0.092,0.385,0.109,0.771,0.066,1.142c0.199,0.316,0.348,0.671,0.433,1.057    l0.159,0.737c0.082,0.386,0.092,0.77,0.04,1.139c0.192,0.319,0.334,0.677,0.41,1.063l0.143,0.739    c0.074,0.389,0.076,0.775,0.016,1.144c0.187,0.324,0.32,0.687,0.388,1.076l0.126,0.736c0.065,0.392,0.06,0.779-0.009,1.147    c0.178,0.327,0.305,0.69,0.363,1.08l0.104,0.691c0.059,0.401,0.043,0.798-0.038,1.174c0.179,0.338,0.301,0.713,0.353,1.115    l0.094,0.739c0.049,0.394,0.025,0.779-0.059,1.144c0.165,0.335,0.275,0.705,0.316,1.097l0.079,0.749    c0.04,0.393,0.009,0.776-0.083,1.138c0.157,0.337,0.26,0.708,0.293,1.102l0.063,0.755c0.031,0.393-0.008,0.773-0.107,1.132    c0.15,0.342,0.245,0.717,0.271,1.113l0.046,0.744c0.023,0.396-0.023,0.78-0.132,1.138c0.144,0.347,0.229,0.724,0.246,1.12    l0.029,0.743c0.016,0.394-0.04,0.773-0.154,1.128c0.136,0.346,0.212,0.722,0.222,1.115l0.014,0.757    c0.006,0.394-0.059,0.773-0.18,1.125c0.129,0.35,0.199,0.728,0.199,1.125L395.686,256.665z"/><path d="M255.996,144.521c-61.493,0-111.521,50.01-111.521,111.481c0,61.471,50.028,111.481,111.521,111.481    c61.474,0,111.485-50.011,111.485-111.481C367.481,194.53,317.47,144.521,255.996,144.521z M333.028,244.014    c-4.518,7.849-19.351,17-39.94,25.229c12.055,15.367,19.97,29.172,21.642,38.327c3.751,2.08,5.784,6.536,4.651,10.894    c-1.13,4.203-4.909,7.122-9.197,7.122c-0.889,0-1.775-0.128-2.635-0.38c-2.419-0.639-4.508-2.229-5.795-4.454    c-0.023-0.04-0.042-0.084-0.064-0.126c-9.175-1.661-22.99-9.573-38.354-21.629c-9.264,23.23-20.53,41.496-30.653,41.496    c-0.743,0-1.477-0.097-2.181-0.287c-6.385-1.608-9.7-10.376-9.831-26.039c-4.623-1.662-7.308-6.651-6.031-11.52    c0.928-3.456,3.697-6.035,7.082-6.828c0.275-2.537,0.589-5.114,0.967-7.756c-9.211,1.32-17.751,2.028-25.089,2.028    c-16.223,0-25.334-3.308-27.079-9.831c-1.848-6.911,5.231-14.792,21.038-23.423c5.896-3.22,12.736-6.378,20.239-9.383    c-3.159-4.027-6.062-7.977-8.641-11.779c-0.692,0.159-1.41,0.25-2.145,0.25c-0.839,0-1.681-0.11-2.5-0.327    c-5.127-1.378-8.167-6.67-6.789-11.8c0.405-1.506,1.16-2.846,2.155-3.95c-4.87-10.319-5.343-17.549-1.385-21.501    c1.755-1.766,4.209-2.665,7.285-2.665c9.053,0,24.389,8.266,41.803,21.966c7.265-18.083,15.257-31.834,22.356-37.892    c-0.02-0.883,0.073-1.782,0.308-2.678c1.118-4.193,4.905-7.114,9.214-7.114c0.891,0,1.779,0.127,2.643,0.377    c5.033,1.345,8.08,6.596,6.725,11.688c-0.238,0.905-0.607,1.747-1.074,2.519c3.145,8.787,3.197,24.706,0.434,44.024    c0.902-0.13,1.788-0.246,2.678-0.364c0.018-0.075,0.029-0.152,0.049-0.228c1.133-4.212,4.966-7.15,9.324-7.15    c0.828,0,1.656,0.108,2.463,0.32c2.928,0.788,5.171,2.854,6.302,5.435c1.491-0.051,2.948-0.08,4.341-0.08    c16.207,0,25.295,3.338,27.01,9.922C334.998,238.799,334.555,241.361,333.028,244.014z"/><path d="M271.092,276.973c-1.641,5.283-3.414,10.524-5.289,15.598c14.737,11.736,27.199,18.927,34.951,21.12    c0.015-0.06,0.029-0.118,0.047-0.178l0,0c0-0.001,0-0.002,0-0.002c0-0.004,0.002-0.009,0.004-0.013    c0.001-0.006,0.004-0.012,0.006-0.019c0.099-0.371,0.225-0.73,0.365-1.081c0.033-0.083,0.064-0.165,0.1-0.247    c0.145-0.334,0.306-0.657,0.484-0.969c0.045-0.079,0.094-0.154,0.142-0.231c0.173-0.283,0.358-0.556,0.558-0.817    c0.033-0.041,0.061-0.086,0.094-0.128c0.225-0.284,0.471-0.549,0.726-0.806c0.065-0.065,0.131-0.131,0.198-0.194    c0.26-0.247,0.531-0.48,0.818-0.697c0.057-0.042,0.115-0.08,0.172-0.122c0.272-0.196,0.555-0.379,0.846-0.546    c0.05-0.029,0.098-0.061,0.147-0.088c0.323-0.177,0.658-0.332,1.001-0.472c0.076-0.031,0.151-0.061,0.229-0.09    c0.35-0.133,0.706-0.249,1.072-0.341c0.014-0.003,0.025-0.009,0.039-0.013c-2.13-7.61-9.047-19.886-21.084-34.948    C281.766,273.52,276.541,275.289,271.092,276.973z"/><path d="M253.282,281.956c2.427,2.179,4.815,4.253,7.156,6.221c1.035-2.864,2.062-5.845,3.073-8.961    c-1.674,0.476-3.359,0.943-5.066,1.401C256.721,281.08,255,281.523,253.282,281.956z"/><path d="M307.344,233.066c-1.255,0-2.561,0.022-3.905,0.066c-0.034,0.12-0.077,0.234-0.117,0.352    c-0.032,0.1-0.063,0.202-0.099,0.3c-0.066,0.177-0.139,0.349-0.213,0.52c-0.029,0.066-0.055,0.133-0.086,0.198    c-0.088,0.191-0.185,0.377-0.285,0.561c-0.023,0.044-0.045,0.089-0.069,0.132c-0.11,0.194-0.228,0.382-0.349,0.565    c-0.021,0.032-0.041,0.065-0.062,0.097c-0.128,0.188-0.263,0.369-0.402,0.546c-0.021,0.025-0.04,0.053-0.061,0.08    c-0.142,0.176-0.289,0.344-0.44,0.509c-0.024,0.026-0.047,0.052-0.07,0.078c-0.152,0.16-0.309,0.312-0.471,0.461    c-0.029,0.026-0.057,0.055-0.085,0.082c-0.157,0.142-0.321,0.275-0.487,0.406c-0.037,0.029-0.072,0.061-0.109,0.09    c-0.16,0.123-0.326,0.237-0.494,0.35c-0.047,0.031-0.092,0.065-0.141,0.097c-0.16,0.104-0.325,0.198-0.492,0.291    c-0.059,0.034-0.116,0.071-0.177,0.104c-0.157,0.084-0.32,0.16-0.483,0.236c-0.072,0.034-0.143,0.072-0.216,0.104    c-0.155,0.068-0.315,0.126-0.476,0.187c-0.082,0.031-0.165,0.067-0.249,0.096c-0.155,0.053-0.315,0.097-0.474,0.142    c-0.092,0.026-0.183,0.059-0.275,0.082c-0.16,0.041-0.324,0.071-0.486,0.104c-0.096,0.02-0.189,0.043-0.284,0.06    c-0.168,0.028-0.341,0.046-0.513,0.065c-0.092,0.01-0.183,0.026-0.275,0.034c-0.264,0.023-0.531,0.034-0.801,0.034    c-0.83,0-1.658-0.109-2.463-0.326c-1.691-0.448-3.192-1.345-4.391-2.579c-0.011-0.009-0.02-0.019-0.029-0.029    c-0.189-0.196-0.369-0.4-0.542-0.612c-0.071-0.087-0.142-0.175-0.21-0.264c-0.098-0.129-0.191-0.262-0.283-0.396    c-0.117-0.171-0.23-0.344-0.338-0.521c-0.013-0.023-0.028-0.042-0.041-0.065c-0.021-0.035-0.036-0.071-0.057-0.106    c-0.089-0.158-0.186-0.311-0.267-0.474c-1.466,0.196-2.952,0.41-4.453,0.64c-0.883,5.2-1.952,10.598-3.204,16.13    c3.856,4.181,7.49,8.335,10.86,12.408c21.458-8.372,35.104-17.146,38.563-23.156c0.429-0.746,0.894-1.808,0.672-2.627    C327.521,236.219,322.623,233.066,307.344,233.066z"/><path d="M307.048,315.742c-0.003,0.029-0.005,0.058-0.005,0.086c-0.033,0.572,0.098,1.135,0.388,1.637    c0.408,0.704,1.075,1.209,1.88,1.421c0.342,0.101,0.609,0.14,0.873,0.14c1.306,0,2.506-0.942,2.855-2.238    c0.43-1.656-0.507-3.315-2.139-3.755c-0.271-0.071-0.547-0.108-0.82-0.108c-1.401,0-2.584,0.912-2.94,2.272    C307.091,315.378,307.063,315.561,307.048,315.742z"/></g></g><g id="Layer_1"/></svg>